<?xml version="1.0" encoding="UTF-8"?>
<svg xmlns="http://www.w3.org/2000/svg" width="1180" height="6108" viewBox="0 0 1180 6108" font-family="Consolas, Menlo, monospace">
<defs>
<marker id="arrowBlue" markerWidth="10" markerHeight="8" refX="9" refY="4" orient="auto"><path d="M0,0 L10,4 L0,8 Z" fill="#1d4ed8"/></marker>
<marker id="arrowAmber" markerWidth="10" markerHeight="8" refX="9" refY="4" orient="auto"><path d="M0,0 L10,4 L0,8 Z" fill="#d97706"/></marker>
<marker id="arrowTeal" markerWidth="10" markerHeight="8" refX="9" refY="4" orient="auto"><path d="M0,0 L10,4 L0,8 Z" fill="#0f766e"/></marker>
<marker id="arrowGreen" markerWidth="10" markerHeight="8" refX="9" refY="4" orient="auto"><path d="M0,0 L10,4 L0,8 Z" fill="#059669"/></marker>
<marker id="arrowRed" markerWidth="10" markerHeight="8" refX="9" refY="4" orient="auto"><path d="M0,0 L10,4 L0,8 Z" fill="#dc2626"/></marker>
</defs>
<rect x="0" y="0" width="100%" height="100%" fill="#ffffff"/>
<text x="30" y="38" font-size="22" fill="#0f172a" font-weight="700">Java UDP Trace via Proxy (8 connections, auto failure scenarios, server1)</text>
<text x="30" y="62" font-size="13" fill="#334155">Blue=DATA, Amber=SYN, Teal=FIN, Green=ACK, Red=errors/drops, Pale Amber=Connection Establishment Handshake, Pale Teal=Connection Termination Handshake</text>
<rect x="200" y="76" width="160" height="30" rx="6" fill="#e2e8f0" stroke="#94a3b8"/>
<text x="280" y="96" text-anchor="middle" font-size="13" fill="#0f172a">Client</text>
<line x1="280" y1="110" x2="280" y2="6084" stroke="#94a3b8" stroke-dasharray="6,6"/>
<rect x="510" y="76" width="160" height="30" rx="6" fill="#e2e8f0" stroke="#94a3b8"/>
<text x="590" y="96" text-anchor="middle" font-size="13" fill="#0f172a">Proxy</text>
<line x1="590" y1="110" x2="590" y2="6084" stroke="#94a3b8" stroke-dasharray="6,6"/>
<rect x="820" y="76" width="160" height="30" rx="6" fill="#e2e8f0" stroke="#94a3b8"/>
<text x="900" y="96" text-anchor="middle" font-size="13" fill="#0f172a">Server</text>
<line x1="900" y1="110" x2="900" y2="6084" stroke="#94a3b8" stroke-dasharray="6,6"/>
<rect x="120" y="124" width="1010" height="676" fill="#f8fafc" stroke="none"/>
<text x="130" y="138" font-size="12" fill="#334155">Connection 1 [no failure] (conn_id=0x86f971f85df2bbc9)</text>
<rect x="120" y="822" width="1010" height="750" fill="#f1f5f9" stroke="none"/>
<text x="130" y="836" font-size="12" fill="#334155">Connection 2 [drop C->S #1] (conn_id=0x684b8c640c122154)</text>
<line x1="120" y1="822" x2="1130" y2="822" stroke="#94a3b8" stroke-width="1.4"/>
<rect x="120" y="1594" width="1010" height="874" fill="#f8fafc" stroke="none"/>
<text x="130" y="1608" font-size="12" fill="#334155">Connection 3 [drop S->C #1] (conn_id=0x37164bf3c116ed86)</text>
<line x1="120" y1="1594" x2="1130" y2="1594" stroke="#94a3b8" stroke-width="1.4"/>
<rect x="120" y="2490" width="1010" height="688" fill="#f1f5f9" stroke="none"/>
<text x="130" y="2504" font-size="12" fill="#334155">Connection 4 [drop C->S #2] (conn_id=0x4d585eed81baa1af)</text>
<line x1="120" y1="2490" x2="1130" y2="2490" stroke="#94a3b8" stroke-width="1.4"/>
<rect x="120" y="3200" width="1010" height="626" fill="#f8fafc" stroke="none"/>
<text x="130" y="3214" font-size="12" fill="#334155">Connection 5 [drop S->C #2] (conn_id=0xee5bcd7c221e5cd7)</text>
<line x1="120" y1="3200" x2="1130" y2="3200" stroke="#94a3b8" stroke-width="1.4"/>
<rect x="120" y="3848" width="1010" height="750" fill="#f1f5f9" stroke="none"/>
<text x="130" y="3862" font-size="12" fill="#334155">Connection 6 [drop C->S #3] (conn_id=0xb55f85012a46522f)</text>
<line x1="120" y1="3848" x2="1130" y2="3848" stroke="#94a3b8" stroke-width="1.4"/>
<rect x="120" y="4620" width="1010" height="750" fill="#f8fafc" stroke="none"/>
<text x="130" y="4634" font-size="12" fill="#334155">Connection 7 [drop S->C #3] (conn_id=0x7dc068c3baa8d909)</text>
<line x1="120" y1="4620" x2="1130" y2="4620" stroke="#94a3b8" stroke-width="1.4"/>
<rect x="120" y="5392" width="1010" height="626" fill="#f1f5f9" stroke="none"/>
<text x="130" y="5406" font-size="12" fill="#334155">Connection 8 [drop C->S #4] (conn_id=0xa135277e229e9987)</text>
<line x1="120" y1="5392" x2="1130" y2="5392" stroke="#94a3b8" stroke-width="1.4"/>
<rect x="185" y="126" width="925" height="172" rx="6" fill="#fef3c7" fill-opacity="0.62" stroke="#d97706" stroke-width="1.2"/>
<text x="196" y="140" font-size="11" fill="#d97706">Connection Establishment Handshake</text>
<rect x="185" y="552" width="925" height="242" rx="6" fill="#ccfbf1" fill-opacity="0.62" stroke="#0f766e" stroke-width="1.2"/>
<text x="196" y="566" font-size="11" fill="#0f766e">Connection Termination Handshake</text>
<rect x="185" y="828" width="925" height="242" rx="6" fill="#fef3c7" fill-opacity="0.62" stroke="#d97706" stroke-width="1.2"/>
<text x="196" y="842" font-size="11" fill="#d97706">Connection Establishment Handshake</text>
<rect x="185" y="1324" width="925" height="242" rx="6" fill="#ccfbf1" fill-opacity="0.62" stroke="#0f766e" stroke-width="1.2"/>
<text x="196" y="1338" font-size="11" fill="#0f766e">Connection Termination Handshake</text>
<rect x="185" y="1600" width="925" height="366" rx="6" fill="#fef3c7" fill-opacity="0.62" stroke="#d97706" stroke-width="1.2"/>
<text x="196" y="1614" font-size="11" fill="#d97706">Connection Establishment Handshake</text>
<rect x="185" y="2220" width="925" height="242" rx="6" fill="#ccfbf1" fill-opacity="0.62" stroke="#0f766e" stroke-width="1.2"/>
<text x="196" y="2234" font-size="11" fill="#0f766e">Connection Termination Handshake</text>
<rect x="185" y="2496" width="925" height="180" rx="6" fill="#fef3c7" fill-opacity="0.62" stroke="#d97706" stroke-width="1.2"/>
<text x="196" y="2510" font-size="11" fill="#d97706">Connection Establishment Handshake</text>
<rect x="185" y="2930" width="925" height="242" rx="6" fill="#ccfbf1" fill-opacity="0.62" stroke="#0f766e" stroke-width="1.2"/>
<text x="196" y="2944" font-size="11" fill="#0f766e">Connection Termination Handshake</text>
<rect x="185" y="3206" width="925" height="180" rx="6" fill="#fef3c7" fill-opacity="0.62" stroke="#d97706" stroke-width="1.2"/>
<text x="196" y="3220" font-size="11" fill="#d97706">Connection Establishment Handshake</text>
<rect x="185" y="3640" width="925" height="180" rx="6" fill="#ccfbf1" fill-opacity="0.62" stroke="#0f766e" stroke-width="1.2"/>
<text x="196" y="3654" font-size="11" fill="#0f766e">Connection Termination Handshake</text>
<rect x="185" y="3854" width="925" height="180" rx="6" fill="#fef3c7" fill-opacity="0.62" stroke="#d97706" stroke-width="1.2"/>
<text x="196" y="3868" font-size="11" fill="#d97706">Connection Establishment Handshake</text>
<rect x="185" y="4350" width="925" height="242" rx="6" fill="#ccfbf1" fill-opacity="0.62" stroke="#0f766e" stroke-width="1.2"/>
<text x="196" y="4364" font-size="11" fill="#0f766e">Connection Termination Handshake</text>
<rect x="185" y="4626" width="925" height="180" rx="6" fill="#fef3c7" fill-opacity="0.62" stroke="#d97706" stroke-width="1.2"/>
<text x="196" y="4640" font-size="11" fill="#d97706">Connection Establishment Handshake</text>
<rect x="185" y="5122" width="925" height="242" rx="6" fill="#ccfbf1" fill-opacity="0.62" stroke="#0f766e" stroke-width="1.2"/>
<text x="196" y="5136" font-size="11" fill="#0f766e">Connection Termination Handshake</text>
<rect x="185" y="5398" width="925" height="180" rx="6" fill="#fef3c7" fill-opacity="0.62" stroke="#d97706" stroke-width="1.2"/>
<text x="196" y="5412" font-size="11" fill="#d97706">Connection Establishment Handshake</text>
<rect x="185" y="5832" width="925" height="180" rx="6" fill="#ccfbf1" fill-opacity="0.62" stroke="#0f766e" stroke-width="1.2"/>
<text x="196" y="5846" font-size="11" fill="#0f766e">Connection Termination Handshake</text>
<text x="30" y="151" font-size="12" fill="#64748b">166.8ms</text>
<line x1="280" y1="146" x2="900" y2="146" stroke="#d97706" stroke-width="2.2" marker-end="url(#arrowAmber)"/>
<text x="590" y="138" text-anchor="middle" font-size="12" fill="#0f172a">#1 SYN conn=0x86f971f85df2bbc9 seq=0 payload=&quot;&quot; (14B)</text>
<text x="30" y="213" font-size="12" fill="#64748b">183.7ms</text>
<line x1="900" y1="208" x2="280" y2="208" stroke="#d97706" stroke-width="2.2" marker-end="url(#arrowAmber)"/>
<text x="590" y="200" text-anchor="middle" font-size="12" fill="#0f172a">#2 ACK|SYN conn=0x86f971f85df2bbc9 seq=0 payload=&quot;&quot; (14B)</text>
<text x="30" y="275" font-size="12" fill="#64748b">190.2ms</text>
<line x1="280" y1="270" x2="900" y2="270" stroke="#059669" stroke-width="2.2" marker-end="url(#arrowGreen)"/>
<text x="590" y="262" text-anchor="middle" font-size="12" fill="#0f172a">#3 ACK conn=0x86f971f85df2bbc9 seq=0 payload=&quot;ack_of=SYN&quot; (15B)</text>
<text x="30" y="337" font-size="12" fill="#64748b">190.3ms</text>
<line x1="280" y1="332" x2="900" y2="332" stroke="#1d4ed8" stroke-width="2.2" marker-end="url(#arrowBlue)"/>
<text x="590" y="324" text-anchor="middle" font-size="12" fill="#0f172a">#4 DATA conn=0x86f971f85df2bbc9 seq=1 payload=&quot;trace-0&quot; (21B)</text>
<text x="30" y="399" font-size="12" fill="#64748b">193.6ms</text>
<line x1="900" y1="394" x2="280" y2="394" stroke="#059669" stroke-width="2.2" marker-end="url(#arrowGreen)"/>
<text x="590" y="386" text-anchor="middle" font-size="12" fill="#0f172a">#5 ACK conn=0x86f971f85df2bbc9 seq=1 payload=&quot;ack_of=DATA&quot; (15B)</text>
<text x="30" y="461" font-size="12" fill="#64748b">194.2ms</text>
<line x1="900" y1="456" x2="280" y2="456" stroke="#1d4ed8" stroke-width="2.2" marker-end="url(#arrowBlue)"/>
<text x="590" y="448" text-anchor="middle" font-size="12" fill="#0f172a">#6 DATA conn=0x86f971f85df2bbc9 seq=1 payload=&quot;Received trace-0&quot; (30B)</text>
<text x="30" y="523" font-size="12" fill="#64748b">194.4ms</text>
<line x1="280" y1="518" x2="900" y2="518" stroke="#059669" stroke-width="2.2" marker-end="url(#arrowGreen)"/>
<text x="590" y="510" text-anchor="middle" font-size="12" fill="#0f172a">#7 ACK conn=0x86f971f85df2bbc9 seq=1 payload=&quot;ack_of=DATA&quot; (15B)</text>
<text x="30" y="585" font-size="12" fill="#64748b">194.6ms</text>
<line x1="900" y1="580" x2="280" y2="580" stroke="#0f766e" stroke-width="2.2" marker-end="url(#arrowTeal)"/>
<text x="590" y="572" text-anchor="middle" font-size="12" fill="#0f172a">#8 FIN conn=0x86f971f85df2bbc9 seq=2 payload=&quot;&quot; (14B)</text>
<text x="30" y="647" font-size="12" fill="#64748b">194.6ms</text>
<line x1="280" y1="642" x2="900" y2="642" stroke="#0f766e" stroke-width="2.2" marker-end="url(#arrowTeal)"/>
<text x="590" y="634" text-anchor="middle" font-size="12" fill="#0f172a">#9 FIN conn=0x86f971f85df2bbc9 seq=2 payload=&quot;&quot; (14B)</text>
<text x="30" y="709" font-size="12" fill="#64748b">194.7ms</text>
<line x1="280" y1="704" x2="900" y2="704" stroke="#059669" stroke-width="2.2" marker-end="url(#arrowGreen)"/>
<text x="590" y="696" text-anchor="middle" font-size="12" fill="#0f172a">#10 ACK conn=0x86f971f85df2bbc9 seq=2 payload=&quot;ack_of=FIN&quot; (15B)</text>
<text x="30" y="771" font-size="12" fill="#64748b">194.9ms</text>
<line x1="900" y1="766" x2="280" y2="766" stroke="#059669" stroke-width="2.2" marker-end="url(#arrowGreen)"/>
<text x="590" y="758" text-anchor="middle" font-size="12" fill="#0f172a">#11 ACK conn=0x86f971f85df2bbc9 seq=2 payload=&quot;ack_of=FIN&quot; (15B)</text>
<text x="30" y="861" font-size="12" fill="#64748b">854.3ms</text>
<line x1="280" y1="856" x2="590" y2="856" stroke="#dc2626" stroke-width="2.2" marker-end="url(#arrowRed)"/>
<line x1="584" y1="850" x2="596" y2="862" stroke="#b91c1c" stroke-width="2"/>
<line x1="584" y1="862" x2="596" y2="850" stroke="#b91c1c" stroke-width="2"/>
<text x="435" y="876" text-anchor="middle" font-size="12" fill="#991b1b">#1 DROP SYN conn=0x684b8c640c122154 seq=0 payload=&quot;&quot; (14B)</text>
<text x="30" y="923" font-size="12" fill="#64748b">941.8ms</text>
<line x1="280" y1="918" x2="900" y2="918" stroke="#d97706" stroke-width="2.2" marker-end="url(#arrowAmber)"/>
<text x="590" y="910" text-anchor="middle" font-size="12" fill="#0f172a">#2 SYN conn=0x684b8c640c122154 seq=0 payload=&quot;&quot; (14B)</text>
<text x="30" y="985" font-size="12" fill="#64748b">942.3ms</text>
<line x1="900" y1="980" x2="280" y2="980" stroke="#d97706" stroke-width="2.2" marker-end="url(#arrowAmber)"/>
<text x="590" y="972" text-anchor="middle" font-size="12" fill="#0f172a">#3 ACK|SYN conn=0x684b8c640c122154 seq=0 payload=&quot;&quot; (14B)</text>
<text x="30" y="1047" font-size="12" fill="#64748b">945.6ms</text>
<line x1="280" y1="1042" x2="900" y2="1042" stroke="#059669" stroke-width="2.2" marker-end="url(#arrowGreen)"/>
<text x="590" y="1034" text-anchor="middle" font-size="12" fill="#0f172a">#4 ACK conn=0x684b8c640c122154 seq=0 payload=&quot;ack_of=SYN&quot; (15B)</text>
<text x="30" y="1109" font-size="12" fill="#64748b">945.8ms</text>
<line x1="280" y1="1104" x2="900" y2="1104" stroke="#1d4ed8" stroke-width="2.2" marker-end="url(#arrowBlue)"/>
<text x="590" y="1096" text-anchor="middle" font-size="12" fill="#0f172a">#5 DATA conn=0x684b8c640c122154 seq=1 payload=&quot;trace-1&quot; (21B)</text>
<text x="30" y="1171" font-size="12" fill="#64748b">945.9ms</text>
<line x1="900" y1="1166" x2="280" y2="1166" stroke="#059669" stroke-width="2.2" marker-end="url(#arrowGreen)"/>
<text x="590" y="1158" text-anchor="middle" font-size="12" fill="#0f172a">#6 ACK conn=0x684b8c640c122154 seq=1 payload=&quot;ack_of=DATA&quot; (15B)</text>
<text x="30" y="1233" font-size="12" fill="#64748b">946.1ms</text>
<line x1="900" y1="1228" x2="280" y2="1228" stroke="#1d4ed8" stroke-width="2.2" marker-end="url(#arrowBlue)"/>
<text x="590" y="1220" text-anchor="middle" font-size="12" fill="#0f172a">#7 DATA conn=0x684b8c640c122154 seq=1 payload=&quot;Received trace-1&quot; (30B)</text>
<text x="30" y="1295" font-size="12" fill="#64748b">946.3ms</text>
<line x1="280" y1="1290" x2="900" y2="1290" stroke="#059669" stroke-width="2.2" marker-end="url(#arrowGreen)"/>
<text x="590" y="1282" text-anchor="middle" font-size="12" fill="#0f172a">#8 ACK conn=0x684b8c640c122154 seq=1 payload=&quot;ack_of=DATA&quot; (15B)</text>
<text x="30" y="1357" font-size="12" fill="#64748b">946.4ms</text>
<line x1="280" y1="1352" x2="900" y2="1352" stroke="#0f766e" stroke-width="2.2" marker-end="url(#arrowTeal)"/>
<text x="590" y="1344" text-anchor="middle" font-size="12" fill="#0f172a">#9 FIN conn=0x684b8c640c122154 seq=2 payload=&quot;&quot; (14B)</text>
<text x="30" y="1419" font-size="12" fill="#64748b">946.5ms</text>
<line x1="900" y1="1414" x2="280" y2="1414" stroke="#0f766e" stroke-width="2.2" marker-end="url(#arrowTeal)"/>
<text x="590" y="1406" text-anchor="middle" font-size="12" fill="#0f172a">#10 FIN conn=0x684b8c640c122154 seq=2 payload=&quot;&quot; (14B)</text>
<text x="30" y="1481" font-size="12" fill="#64748b">946.6ms</text>
<line x1="900" y1="1476" x2="280" y2="1476" stroke="#059669" stroke-width="2.2" marker-end="url(#arrowGreen)"/>
<text x="590" y="1468" text-anchor="middle" font-size="12" fill="#0f172a">#11 ACK conn=0x684b8c640c122154 seq=2 payload=&quot;ack_of=FIN&quot; (15B)</text>
<text x="30" y="1543" font-size="12" fill="#64748b">946.8ms</text>
<line x1="280" y1="1538" x2="900" y2="1538" stroke="#059669" stroke-width="2.2" marker-end="url(#arrowGreen)"/>
<text x="590" y="1530" text-anchor="middle" font-size="12" fill="#0f172a">#12 ACK conn=0x684b8c640c122154 seq=2 payload=&quot;ack_of=FIN&quot; (15B)</text>
<text x="30" y="1633" font-size="12" fill="#64748b">1598.4ms</text>
<line x1="280" y1="1628" x2="900" y2="1628" stroke="#d97706" stroke-width="2.2" marker-end="url(#arrowAmber)"/>
<text x="590" y="1620" text-anchor="middle" font-size="12" fill="#0f172a">#1 SYN conn=0x37164bf3c116ed86 seq=0 payload=&quot;&quot; (14B)</text>
<text x="30" y="1695" font-size="12" fill="#64748b">1598.8ms</text>
<line x1="900" y1="1690" x2="590" y2="1690" stroke="#dc2626" stroke-width="2.2" marker-end="url(#arrowRed)"/>
<line x1="584" y1="1684" x2="596" y2="1696" stroke="#b91c1c" stroke-width="2"/>
<line x1="584" y1="1696" x2="596" y2="1684" stroke="#b91c1c" stroke-width="2"/>
<text x="745" y="1710" text-anchor="middle" font-size="12" fill="#991b1b">#2 DROP ACK|SYN conn=0x37164bf3c116ed86 seq=0 payload=&quot;&quot; (14B)</text>
<text x="30" y="1757" font-size="12" fill="#64748b">1700.4ms</text>
<line x1="900" y1="1752" x2="280" y2="1752" stroke="#d97706" stroke-width="2.2" marker-end="url(#arrowAmber)"/>
<text x="590" y="1744" text-anchor="middle" font-size="12" fill="#0f172a">#3 ACK|SYN conn=0x37164bf3c116ed86 seq=0 payload=&quot;&quot; (14B)</text>
<text x="30" y="1819" font-size="12" fill="#64748b">1703.4ms</text>
<line x1="280" y1="1814" x2="900" y2="1814" stroke="#d97706" stroke-width="2.2" marker-end="url(#arrowAmber)"/>
<text x="590" y="1806" text-anchor="middle" font-size="12" fill="#0f172a">#4 SYN conn=0x37164bf3c116ed86 seq=0 payload=&quot;&quot; (14B)</text>
<text x="30" y="1881" font-size="12" fill="#64748b">1703.7ms</text>
<line x1="900" y1="1876" x2="280" y2="1876" stroke="#059669" stroke-width="2.2" marker-end="url(#arrowGreen)"/>
<text x="590" y="1868" text-anchor="middle" font-size="12" fill="#0f172a">#5 ACK conn=0x37164bf3c116ed86 seq=0 payload=&quot;ack_of=SYN&quot; (15B)</text>
<text x="30" y="1943" font-size="12" fill="#64748b">1705.5ms</text>
<line x1="280" y1="1938" x2="900" y2="1938" stroke="#059669" stroke-width="2.2" marker-end="url(#arrowGreen)"/>
<text x="590" y="1930" text-anchor="middle" font-size="12" fill="#0f172a">#6 ACK conn=0x37164bf3c116ed86 seq=0 payload=&quot;ack_of=SYN&quot; (15B)</text>
<text x="30" y="2005" font-size="12" fill="#64748b">1705.6ms</text>
<line x1="280" y1="2000" x2="900" y2="2000" stroke="#1d4ed8" stroke-width="2.2" marker-end="url(#arrowBlue)"/>
<text x="590" y="1992" text-anchor="middle" font-size="12" fill="#0f172a">#7 DATA conn=0x37164bf3c116ed86 seq=1 payload=&quot;trace-2&quot; (21B)</text>
<text x="30" y="2067" font-size="12" fill="#64748b">1705.7ms</text>
<line x1="900" y1="2062" x2="280" y2="2062" stroke="#059669" stroke-width="2.2" marker-end="url(#arrowGreen)"/>
<text x="590" y="2054" text-anchor="middle" font-size="12" fill="#0f172a">#8 ACK conn=0x37164bf3c116ed86 seq=1 payload=&quot;ack_of=DATA&quot; (15B)</text>
<text x="30" y="2129" font-size="12" fill="#64748b">1706.0ms</text>
<line x1="900" y1="2124" x2="280" y2="2124" stroke="#1d4ed8" stroke-width="2.2" marker-end="url(#arrowBlue)"/>
<text x="590" y="2116" text-anchor="middle" font-size="12" fill="#0f172a">#9 DATA conn=0x37164bf3c116ed86 seq=1 payload=&quot;Received trace-2&quot; (30B)</text>
<text x="30" y="2191" font-size="12" fill="#64748b">1706.1ms</text>
<line x1="280" y1="2186" x2="900" y2="2186" stroke="#059669" stroke-width="2.2" marker-end="url(#arrowGreen)"/>
<text x="590" y="2178" text-anchor="middle" font-size="12" fill="#0f172a">#10 ACK conn=0x37164bf3c116ed86 seq=1 payload=&quot;ack_of=DATA&quot; (15B)</text>
<text x="30" y="2253" font-size="12" fill="#64748b">1706.3ms</text>
<line x1="900" y1="2248" x2="280" y2="2248" stroke="#0f766e" stroke-width="2.2" marker-end="url(#arrowTeal)"/>
<text x="590" y="2240" text-anchor="middle" font-size="12" fill="#0f172a">#11 FIN conn=0x37164bf3c116ed86 seq=2 payload=&quot;&quot; (14B)</text>
<text x="30" y="2315" font-size="12" fill="#64748b">1706.3ms</text>
<line x1="280" y1="2310" x2="900" y2="2310" stroke="#0f766e" stroke-width="2.2" marker-end="url(#arrowTeal)"/>
<text x="590" y="2302" text-anchor="middle" font-size="12" fill="#0f172a">#12 FIN conn=0x37164bf3c116ed86 seq=2 payload=&quot;&quot; (14B)</text>
<text x="30" y="2377" font-size="12" fill="#64748b">1706.5ms</text>
<line x1="280" y1="2372" x2="900" y2="2372" stroke="#059669" stroke-width="2.2" marker-end="url(#arrowGreen)"/>
<text x="590" y="2364" text-anchor="middle" font-size="12" fill="#0f172a">#13 ACK conn=0x37164bf3c116ed86 seq=2 payload=&quot;ack_of=FIN&quot; (15B)</text>
<text x="30" y="2439" font-size="12" fill="#64748b">1706.6ms</text>
<line x1="900" y1="2434" x2="280" y2="2434" stroke="#059669" stroke-width="2.2" marker-end="url(#arrowGreen)"/>
<text x="590" y="2426" text-anchor="middle" font-size="12" fill="#0f172a">#14 ACK conn=0x37164bf3c116ed86 seq=2 payload=&quot;ack_of=FIN&quot; (15B)</text>
<text x="30" y="2529" font-size="12" fill="#64748b">2361.5ms</text>
<line x1="280" y1="2524" x2="900" y2="2524" stroke="#d97706" stroke-width="2.2" marker-end="url(#arrowAmber)"/>
<text x="590" y="2516" text-anchor="middle" font-size="12" fill="#0f172a">#1 SYN conn=0x4d585eed81baa1af seq=0 payload=&quot;&quot; (14B)</text>
<text x="30" y="2591" font-size="12" fill="#64748b">2361.9ms</text>
<line x1="900" y1="2586" x2="280" y2="2586" stroke="#d97706" stroke-width="2.2" marker-end="url(#arrowAmber)"/>
<text x="590" y="2578" text-anchor="middle" font-size="12" fill="#0f172a">#2 ACK|SYN conn=0x4d585eed81baa1af seq=0 payload=&quot;&quot; (14B)</text>
<text x="30" y="2653" font-size="12" fill="#64748b">2367.4ms</text>
<line x1="280" y1="2648" x2="590" y2="2648" stroke="#dc2626" stroke-width="2.2" marker-end="url(#arrowRed)"/>
<line x1="584" y1="2642" x2="596" y2="2654" stroke="#b91c1c" stroke-width="2"/>
<line x1="584" y1="2654" x2="596" y2="2642" stroke="#b91c1c" stroke-width="2"/>
<text x="435" y="2668" text-anchor="middle" font-size="12" fill="#991b1b">#3 DROP ACK conn=0x4d585eed81baa1af seq=0 payload=&quot;ack_of=SYN&quot; (15B)</text>
<text x="30" y="2715" font-size="12" fill="#64748b">2367.5ms</text>
<line x1="280" y1="2710" x2="900" y2="2710" stroke="#1d4ed8" stroke-width="2.2" marker-end="url(#arrowBlue)"/>
<text x="590" y="2702" text-anchor="middle" font-size="12" fill="#0f172a">#4 DATA conn=0x4d585eed81baa1af seq=1 payload=&quot;trace-3&quot; (21B)</text>
<text x="30" y="2777" font-size="12" fill="#64748b">2367.7ms</text>
<line x1="900" y1="2772" x2="280" y2="2772" stroke="#059669" stroke-width="2.2" marker-end="url(#arrowGreen)"/>
<text x="590" y="2764" text-anchor="middle" font-size="12" fill="#0f172a">#5 ACK conn=0x4d585eed81baa1af seq=1 payload=&quot;ack_of=DATA&quot; (15B)</text>
<text x="30" y="2839" font-size="12" fill="#64748b">2367.8ms</text>
<line x1="900" y1="2834" x2="280" y2="2834" stroke="#1d4ed8" stroke-width="2.2" marker-end="url(#arrowBlue)"/>
<text x="590" y="2826" text-anchor="middle" font-size="12" fill="#0f172a">#6 DATA conn=0x4d585eed81baa1af seq=1 payload=&quot;Received trace-3&quot; (30B)</text>
<text x="30" y="2901" font-size="12" fill="#64748b">2368.0ms</text>
<line x1="280" y1="2896" x2="900" y2="2896" stroke="#059669" stroke-width="2.2" marker-end="url(#arrowGreen)"/>
<text x="590" y="2888" text-anchor="middle" font-size="12" fill="#0f172a">#7 ACK conn=0x4d585eed81baa1af seq=1 payload=&quot;ack_of=DATA&quot; (15B)</text>
<text x="30" y="2963" font-size="12" fill="#64748b">2368.1ms</text>
<line x1="900" y1="2958" x2="280" y2="2958" stroke="#0f766e" stroke-width="2.2" marker-end="url(#arrowTeal)"/>
<text x="590" y="2950" text-anchor="middle" font-size="12" fill="#0f172a">#8 FIN conn=0x4d585eed81baa1af seq=2 payload=&quot;&quot; (14B)</text>
<text x="30" y="3025" font-size="12" fill="#64748b">2368.2ms</text>
<line x1="280" y1="3020" x2="900" y2="3020" stroke="#0f766e" stroke-width="2.2" marker-end="url(#arrowTeal)"/>
<text x="590" y="3012" text-anchor="middle" font-size="12" fill="#0f172a">#9 FIN conn=0x4d585eed81baa1af seq=2 payload=&quot;&quot; (14B)</text>
<text x="30" y="3087" font-size="12" fill="#64748b">2368.3ms</text>
<line x1="900" y1="3082" x2="280" y2="3082" stroke="#059669" stroke-width="2.2" marker-end="url(#arrowGreen)"/>
<text x="590" y="3074" text-anchor="middle" font-size="12" fill="#0f172a">#10 ACK conn=0x4d585eed81baa1af seq=2 payload=&quot;ack_of=FIN&quot; (15B)</text>
<text x="30" y="3149" font-size="12" fill="#64748b">2368.3ms</text>
<line x1="280" y1="3144" x2="900" y2="3144" stroke="#059669" stroke-width="2.2" marker-end="url(#arrowGreen)"/>
<text x="590" y="3136" text-anchor="middle" font-size="12" fill="#0f172a">#11 ACK conn=0x4d585eed81baa1af seq=2 payload=&quot;ack_of=FIN&quot; (15B)</text>
<text x="30" y="3239" font-size="12" fill="#64748b">3029.0ms</text>
<line x1="280" y1="3234" x2="900" y2="3234" stroke="#d97706" stroke-width="2.2" marker-end="url(#arrowAmber)"/>
<text x="590" y="3226" text-anchor="middle" font-size="12" fill="#0f172a">#1 SYN conn=0xee5bcd7c221e5cd7 seq=0 payload=&quot;&quot; (14B)</text>
<text x="30" y="3301" font-size="12" fill="#64748b">3029.5ms</text>
<line x1="900" y1="3296" x2="280" y2="3296" stroke="#d97706" stroke-width="2.2" marker-end="url(#arrowAmber)"/>
<text x="590" y="3288" text-anchor="middle" font-size="12" fill="#0f172a">#2 ACK|SYN conn=0xee5bcd7c221e5cd7 seq=0 payload=&quot;&quot; (14B)</text>
<text x="30" y="3363" font-size="12" fill="#64748b">3034.5ms</text>
<line x1="280" y1="3358" x2="900" y2="3358" stroke="#059669" stroke-width="2.2" marker-end="url(#arrowGreen)"/>
<text x="590" y="3350" text-anchor="middle" font-size="12" fill="#0f172a">#3 ACK conn=0xee5bcd7c221e5cd7 seq=0 payload=&quot;ack_of=SYN&quot; (15B)</text>
<text x="30" y="3425" font-size="12" fill="#64748b">3034.6ms</text>
<line x1="280" y1="3420" x2="900" y2="3420" stroke="#1d4ed8" stroke-width="2.2" marker-end="url(#arrowBlue)"/>
<text x="590" y="3412" text-anchor="middle" font-size="12" fill="#0f172a">#4 DATA conn=0xee5bcd7c221e5cd7 seq=1 payload=&quot;trace-4&quot; (21B)</text>
<text x="30" y="3487" font-size="12" fill="#64748b">3034.7ms</text>
<line x1="900" y1="3482" x2="590" y2="3482" stroke="#dc2626" stroke-width="2.2" marker-end="url(#arrowRed)"/>
<line x1="584" y1="3476" x2="596" y2="3488" stroke="#b91c1c" stroke-width="2"/>
<line x1="584" y1="3488" x2="596" y2="3476" stroke="#b91c1c" stroke-width="2"/>
<text x="745" y="3502" text-anchor="middle" font-size="12" fill="#991b1b">#5 DROP ACK conn=0xee5bcd7c221e5cd7 seq=1 payload=&quot;ack_of=DATA&quot; (15B)</text>
<text x="30" y="3549" font-size="12" fill="#64748b">3034.9ms</text>
<line x1="900" y1="3544" x2="280" y2="3544" stroke="#1d4ed8" stroke-width="2.2" marker-end="url(#arrowBlue)"/>
<text x="590" y="3536" text-anchor="middle" font-size="12" fill="#0f172a">#6 DATA conn=0xee5bcd7c221e5cd7 seq=1 payload=&quot;Received trace-4&quot; (30B)</text>
<text x="30" y="3611" font-size="12" fill="#64748b">3035.1ms</text>
<line x1="280" y1="3606" x2="900" y2="3606" stroke="#059669" stroke-width="2.2" marker-end="url(#arrowGreen)"/>
<text x="590" y="3598" text-anchor="middle" font-size="12" fill="#0f172a">#7 ACK conn=0xee5bcd7c221e5cd7 seq=1 payload=&quot;ack_of=DATA&quot; (15B)</text>
<text x="30" y="3673" font-size="12" fill="#64748b">3035.3ms</text>
<line x1="900" y1="3668" x2="280" y2="3668" stroke="#0f766e" stroke-width="2.2" marker-end="url(#arrowTeal)"/>
<text x="590" y="3660" text-anchor="middle" font-size="12" fill="#0f172a">#8 FIN conn=0xee5bcd7c221e5cd7 seq=2 payload=&quot;&quot; (14B)</text>
<text x="30" y="3735" font-size="12" fill="#64748b">3035.5ms</text>
<line x1="280" y1="3730" x2="900" y2="3730" stroke="#0f766e" stroke-width="2.2" marker-end="url(#arrowTeal)"/>
<text x="590" y="3722" text-anchor="middle" font-size="12" fill="#0f172a">#9 ACK|FIN conn=0xee5bcd7c221e5cd7 seq=2 payload=&quot;&quot; (14B)</text>
<text x="30" y="3797" font-size="12" fill="#64748b">3035.6ms</text>
<line x1="900" y1="3792" x2="280" y2="3792" stroke="#059669" stroke-width="2.2" marker-end="url(#arrowGreen)"/>
<text x="590" y="3784" text-anchor="middle" font-size="12" fill="#0f172a">#10 ACK conn=0xee5bcd7c221e5cd7 seq=2 payload=&quot;ack_of=FIN&quot; (15B)</text>
<text x="30" y="3887" font-size="12" fill="#64748b">3695.6ms</text>
<line x1="280" y1="3882" x2="900" y2="3882" stroke="#d97706" stroke-width="2.2" marker-end="url(#arrowAmber)"/>
<text x="590" y="3874" text-anchor="middle" font-size="12" fill="#0f172a">#1 SYN conn=0xb55f85012a46522f seq=0 payload=&quot;&quot; (14B)</text>
<text x="30" y="3949" font-size="12" fill="#64748b">3696.0ms</text>
<line x1="900" y1="3944" x2="280" y2="3944" stroke="#d97706" stroke-width="2.2" marker-end="url(#arrowAmber)"/>
<text x="590" y="3936" text-anchor="middle" font-size="12" fill="#0f172a">#2 ACK|SYN conn=0xb55f85012a46522f seq=0 payload=&quot;&quot; (14B)</text>
<text x="30" y="4011" font-size="12" fill="#64748b">3701.4ms</text>
<line x1="280" y1="4006" x2="900" y2="4006" stroke="#059669" stroke-width="2.2" marker-end="url(#arrowGreen)"/>
<text x="590" y="3998" text-anchor="middle" font-size="12" fill="#0f172a">#3 ACK conn=0xb55f85012a46522f seq=0 payload=&quot;ack_of=SYN&quot; (15B)</text>
<text x="30" y="4073" font-size="12" fill="#64748b">3701.5ms</text>
<line x1="280" y1="4068" x2="590" y2="4068" stroke="#dc2626" stroke-width="2.2" marker-end="url(#arrowRed)"/>
<line x1="584" y1="4062" x2="596" y2="4074" stroke="#b91c1c" stroke-width="2"/>
<line x1="584" y1="4074" x2="596" y2="4062" stroke="#b91c1c" stroke-width="2"/>
<text x="435" y="4088" text-anchor="middle" font-size="12" fill="#991b1b">#4 DROP DATA conn=0xb55f85012a46522f seq=1 payload=&quot;trace-5&quot; (21B)</text>
<text x="30" y="4135" font-size="12" fill="#64748b">3815.5ms</text>
<line x1="280" y1="4130" x2="900" y2="4130" stroke="#1d4ed8" stroke-width="2.2" marker-end="url(#arrowBlue)"/>
<text x="590" y="4122" text-anchor="middle" font-size="12" fill="#0f172a">#5 DATA conn=0xb55f85012a46522f seq=1 payload=&quot;trace-5&quot; (21B)</text>
<text x="30" y="4197" font-size="12" fill="#64748b">3815.7ms</text>
<line x1="900" y1="4192" x2="280" y2="4192" stroke="#059669" stroke-width="2.2" marker-end="url(#arrowGreen)"/>
<text x="590" y="4184" text-anchor="middle" font-size="12" fill="#0f172a">#6 ACK conn=0xb55f85012a46522f seq=1 payload=&quot;ack_of=DATA&quot; (15B)</text>
<text x="30" y="4259" font-size="12" fill="#64748b">3815.9ms</text>
<line x1="900" y1="4254" x2="280" y2="4254" stroke="#1d4ed8" stroke-width="2.2" marker-end="url(#arrowBlue)"/>
<text x="590" y="4246" text-anchor="middle" font-size="12" fill="#0f172a">#7 DATA conn=0xb55f85012a46522f seq=1 payload=&quot;Received trace-5&quot; (30B)</text>
<text x="30" y="4321" font-size="12" fill="#64748b">3816.1ms</text>
<line x1="280" y1="4316" x2="900" y2="4316" stroke="#059669" stroke-width="2.2" marker-end="url(#arrowGreen)"/>
<text x="590" y="4308" text-anchor="middle" font-size="12" fill="#0f172a">#8 ACK conn=0xb55f85012a46522f seq=1 payload=&quot;ack_of=DATA&quot; (15B)</text>
<text x="30" y="4383" font-size="12" fill="#64748b">3816.3ms</text>
<line x1="280" y1="4378" x2="900" y2="4378" stroke="#0f766e" stroke-width="2.2" marker-end="url(#arrowTeal)"/>
<text x="590" y="4370" text-anchor="middle" font-size="12" fill="#0f172a">#9 FIN conn=0xb55f85012a46522f seq=2 payload=&quot;&quot; (14B)</text>
<text x="30" y="4445" font-size="12" fill="#64748b">3816.3ms</text>
<line x1="900" y1="4440" x2="280" y2="4440" stroke="#0f766e" stroke-width="2.2" marker-end="url(#arrowTeal)"/>
<text x="590" y="4432" text-anchor="middle" font-size="12" fill="#0f172a">#10 FIN conn=0xb55f85012a46522f seq=2 payload=&quot;&quot; (14B)</text>
<text x="30" y="4507" font-size="12" fill="#64748b">3816.5ms</text>
<line x1="900" y1="4502" x2="280" y2="4502" stroke="#059669" stroke-width="2.2" marker-end="url(#arrowGreen)"/>
<text x="590" y="4494" text-anchor="middle" font-size="12" fill="#0f172a">#11 ACK conn=0xb55f85012a46522f seq=2 payload=&quot;ack_of=FIN&quot; (15B)</text>
<text x="30" y="4569" font-size="12" fill="#64748b">3816.5ms</text>
<line x1="280" y1="4564" x2="900" y2="4564" stroke="#059669" stroke-width="2.2" marker-end="url(#arrowGreen)"/>
<text x="590" y="4556" text-anchor="middle" font-size="12" fill="#0f172a">#12 ACK conn=0xb55f85012a46522f seq=2 payload=&quot;ack_of=FIN&quot; (15B)</text>
<text x="30" y="4659" font-size="12" fill="#64748b">4470.5ms</text>
<line x1="280" y1="4654" x2="900" y2="4654" stroke="#d97706" stroke-width="2.2" marker-end="url(#arrowAmber)"/>
<text x="590" y="4646" text-anchor="middle" font-size="12" fill="#0f172a">#1 SYN conn=0x7dc068c3baa8d909 seq=0 payload=&quot;&quot; (14B)</text>
<text x="30" y="4721" font-size="12" fill="#64748b">4470.9ms</text>
<line x1="900" y1="4716" x2="280" y2="4716" stroke="#d97706" stroke-width="2.2" marker-end="url(#arrowAmber)"/>
<text x="590" y="4708" text-anchor="middle" font-size="12" fill="#0f172a">#2 ACK|SYN conn=0x7dc068c3baa8d909 seq=0 payload=&quot;&quot; (14B)</text>
<text x="30" y="4783" font-size="12" fill="#64748b">4476.1ms</text>
<line x1="280" y1="4778" x2="900" y2="4778" stroke="#059669" stroke-width="2.2" marker-end="url(#arrowGreen)"/>
<text x="590" y="4770" text-anchor="middle" font-size="12" fill="#0f172a">#3 ACK conn=0x7dc068c3baa8d909 seq=0 payload=&quot;ack_of=SYN&quot; (15B)</text>
<text x="30" y="4845" font-size="12" fill="#64748b">4476.2ms</text>
<line x1="280" y1="4840" x2="900" y2="4840" stroke="#1d4ed8" stroke-width="2.2" marker-end="url(#arrowBlue)"/>
<text x="590" y="4832" text-anchor="middle" font-size="12" fill="#0f172a">#4 DATA conn=0x7dc068c3baa8d909 seq=1 payload=&quot;trace-6&quot; (21B)</text>
<text x="30" y="4907" font-size="12" fill="#64748b">4476.4ms</text>
<line x1="900" y1="4902" x2="280" y2="4902" stroke="#059669" stroke-width="2.2" marker-end="url(#arrowGreen)"/>
<text x="590" y="4894" text-anchor="middle" font-size="12" fill="#0f172a">#5 ACK conn=0x7dc068c3baa8d909 seq=1 payload=&quot;ack_of=DATA&quot; (15B)</text>
<text x="30" y="4969" font-size="12" fill="#64748b">4476.6ms</text>
<line x1="900" y1="4964" x2="590" y2="4964" stroke="#dc2626" stroke-width="2.2" marker-end="url(#arrowRed)"/>
<line x1="584" y1="4958" x2="596" y2="4970" stroke="#b91c1c" stroke-width="2"/>
<line x1="584" y1="4970" x2="596" y2="4958" stroke="#b91c1c" stroke-width="2"/>
<text x="745" y="4984" text-anchor="middle" font-size="12" fill="#991b1b">#6 DROP DATA conn=0x7dc068c3baa8d909 seq=1 payload=&quot;Received trace-6&quot; (30B)</text>
<text x="30" y="5031" font-size="12" fill="#64748b">4563.0ms</text>
<line x1="900" y1="5026" x2="280" y2="5026" stroke="#1d4ed8" stroke-width="2.2" marker-end="url(#arrowBlue)"/>
<text x="590" y="5018" text-anchor="middle" font-size="12" fill="#0f172a">#7 DATA conn=0x7dc068c3baa8d909 seq=1 payload=&quot;Received trace-6&quot; (30B)</text>
<text x="30" y="5093" font-size="12" fill="#64748b">4563.2ms</text>
<line x1="280" y1="5088" x2="900" y2="5088" stroke="#059669" stroke-width="2.2" marker-end="url(#arrowGreen)"/>
<text x="590" y="5080" text-anchor="middle" font-size="12" fill="#0f172a">#8 ACK conn=0x7dc068c3baa8d909 seq=1 payload=&quot;ack_of=DATA&quot; (15B)</text>
<text x="30" y="5155" font-size="12" fill="#64748b">4563.5ms</text>
<line x1="280" y1="5150" x2="900" y2="5150" stroke="#0f766e" stroke-width="2.2" marker-end="url(#arrowTeal)"/>
<text x="590" y="5142" text-anchor="middle" font-size="12" fill="#0f172a">#9 FIN conn=0x7dc068c3baa8d909 seq=2 payload=&quot;&quot; (14B)</text>
<text x="30" y="5217" font-size="12" fill="#64748b">4563.6ms</text>
<line x1="900" y1="5212" x2="280" y2="5212" stroke="#0f766e" stroke-width="2.2" marker-end="url(#arrowTeal)"/>
<text x="590" y="5204" text-anchor="middle" font-size="12" fill="#0f172a">#10 FIN conn=0x7dc068c3baa8d909 seq=2 payload=&quot;&quot; (14B)</text>
<text x="30" y="5279" font-size="12" fill="#64748b">4563.8ms</text>
<line x1="900" y1="5274" x2="280" y2="5274" stroke="#059669" stroke-width="2.2" marker-end="url(#arrowGreen)"/>
<text x="590" y="5266" text-anchor="middle" font-size="12" fill="#0f172a">#11 ACK conn=0x7dc068c3baa8d909 seq=2 payload=&quot;ack_of=FIN&quot; (15B)</text>
<text x="30" y="5341" font-size="12" fill="#64748b">4563.8ms</text>
<line x1="280" y1="5336" x2="900" y2="5336" stroke="#059669" stroke-width="2.2" marker-end="url(#arrowGreen)"/>
<text x="590" y="5328" text-anchor="middle" font-size="12" fill="#0f172a">#12 ACK conn=0x7dc068c3baa8d909 seq=2 payload=&quot;ack_of=FIN&quot; (15B)</text>
<text x="30" y="5431" font-size="12" fill="#64748b">5224.3ms</text>
<line x1="280" y1="5426" x2="900" y2="5426" stroke="#d97706" stroke-width="2.2" marker-end="url(#arrowAmber)"/>
<text x="590" y="5418" text-anchor="middle" font-size="12" fill="#0f172a">#1 SYN conn=0xa135277e229e9987 seq=0 payload=&quot;&quot; (14B)</text>
<text x="30" y="5493" font-size="12" fill="#64748b">5224.7ms</text>
<line x1="900" y1="5488" x2="280" y2="5488" stroke="#d97706" stroke-width="2.2" marker-end="url(#arrowAmber)"/>
<text x="590" y="5480" text-anchor="middle" font-size="12" fill="#0f172a">#2 ACK|SYN conn=0xa135277e229e9987 seq=0 payload=&quot;&quot; (14B)</text>
<text x="30" y="5555" font-size="12" fill="#64748b">5230.4ms</text>
<line x1="280" y1="5550" x2="900" y2="5550" stroke="#059669" stroke-width="2.2" marker-end="url(#arrowGreen)"/>
<text x="590" y="5542" text-anchor="middle" font-size="12" fill="#0f172a">#3 ACK conn=0xa135277e229e9987 seq=0 payload=&quot;ack_of=SYN&quot; (15B)</text>
<text x="30" y="5617" font-size="12" fill="#64748b">5230.5ms</text>
<line x1="280" y1="5612" x2="900" y2="5612" stroke="#1d4ed8" stroke-width="2.2" marker-end="url(#arrowBlue)"/>
<text x="590" y="5604" text-anchor="middle" font-size="12" fill="#0f172a">#4 DATA conn=0xa135277e229e9987 seq=1 payload=&quot;trace-7&quot; (21B)</text>
<text x="30" y="5679" font-size="12" fill="#64748b">5230.6ms</text>
<line x1="900" y1="5674" x2="280" y2="5674" stroke="#059669" stroke-width="2.2" marker-end="url(#arrowGreen)"/>
<text x="590" y="5666" text-anchor="middle" font-size="12" fill="#0f172a">#5 ACK conn=0xa135277e229e9987 seq=1 payload=&quot;ack_of=DATA&quot; (15B)</text>
<text x="30" y="5741" font-size="12" fill="#64748b">5230.8ms</text>
<line x1="900" y1="5736" x2="280" y2="5736" stroke="#1d4ed8" stroke-width="2.2" marker-end="url(#arrowBlue)"/>
<text x="590" y="5728" text-anchor="middle" font-size="12" fill="#0f172a">#6 DATA conn=0xa135277e229e9987 seq=1 payload=&quot;Received trace-7&quot; (30B)</text>
<text x="30" y="5803" font-size="12" fill="#64748b">5231.0ms</text>
<line x1="280" y1="5798" x2="590" y2="5798" stroke="#dc2626" stroke-width="2.2" marker-end="url(#arrowRed)"/>
<line x1="584" y1="5792" x2="596" y2="5804" stroke="#b91c1c" stroke-width="2"/>
<line x1="584" y1="5804" x2="596" y2="5792" stroke="#b91c1c" stroke-width="2"/>
<text x="435" y="5818" text-anchor="middle" font-size="12" fill="#991b1b">#7 DROP ACK conn=0xa135277e229e9987 seq=1 payload=&quot;ack_of=DATA&quot; (15B)</text>
<text x="30" y="5865" font-size="12" fill="#64748b">5231.4ms</text>
<line x1="280" y1="5860" x2="900" y2="5860" stroke="#0f766e" stroke-width="2.2" marker-end="url(#arrowTeal)"/>
<text x="590" y="5852" text-anchor="middle" font-size="12" fill="#0f172a">#8 FIN conn=0xa135277e229e9987 seq=2 payload=&quot;&quot; (14B)</text>
<text x="30" y="5927" font-size="12" fill="#64748b">5231.6ms</text>
<line x1="900" y1="5922" x2="280" y2="5922" stroke="#0f766e" stroke-width="2.2" marker-end="url(#arrowTeal)"/>
<text x="590" y="5914" text-anchor="middle" font-size="12" fill="#0f172a">#9 ACK|FIN conn=0xa135277e229e9987 seq=2 payload=&quot;&quot; (14B)</text>
<text x="30" y="5989" font-size="12" fill="#64748b">5232.1ms</text>
<line x1="280" y1="5984" x2="900" y2="5984" stroke="#059669" stroke-width="2.2" marker-end="url(#arrowGreen)"/>
<text x="590" y="5976" text-anchor="middle" font-size="12" fill="#0f172a">#10 ACK conn=0xa135277e229e9987 seq=2 payload=&quot;ack_of=FIN&quot; (15B)</text>
</svg>