<?xml version="1.0" encoding="UTF-8"?>
<svg xmlns="http://www.w3.org/2000/svg" width="1180" height="6542" viewBox="0 0 1180 6542" font-family="Consolas, Menlo, monospace">
<defs>
<marker id="arrowBlue" markerWidth="10" markerHeight="8" refX="9" refY="4" orient="auto"><path d="M0,0 L10,4 L0,8 Z" fill="#1d4ed8"/></marker>
<marker id="arrowAmber" markerWidth="10" markerHeight="8" refX="9" refY="4" orient="auto"><path d="M0,0 L10,4 L0,8 Z" fill="#d97706"/></marker>
<marker id="arrowTeal" markerWidth="10" markerHeight="8" refX="9" refY="4" orient="auto"><path d="M0,0 L10,4 L0,8 Z" fill="#0f766e"/></marker>
<marker id="arrowGreen" markerWidth="10" markerHeight="8" refX="9" refY="4" orient="auto"><path d="M0,0 L10,4 L0,8 Z" fill="#059669"/></marker>
<marker id="arrowRed" markerWidth="10" markerHeight="8" refX="9" refY="4" orient="auto"><path d="M0,0 L10,4 L0,8 Z" fill="#dc2626"/></marker>
</defs>
<rect x="0" y="0" width="100%" height="100%" fill="#ffffff"/>
<text x="30" y="38" font-size="22" fill="#0f172a" font-weight="700">Java UDP Trace via Proxy (8 connections, auto failure scenarios, server1)</text>
<text x="30" y="62" font-size="13" fill="#334155">Blue=DATA, Amber=SYN, Teal=FIN, Green=ACK, Red=errors/drops</text>
<rect x="200" y="76" width="160" height="30" rx="6" fill="#e2e8f0" stroke="#94a3b8"/>
<text x="280" y="96" text-anchor="middle" font-size="13" fill="#0f172a">Client</text>
<line x1="280" y1="110" x2="280" y2="6518" stroke="#94a3b8" stroke-dasharray="6,6"/>
<rect x="510" y="76" width="160" height="30" rx="6" fill="#e2e8f0" stroke="#94a3b8"/>
<text x="590" y="96" text-anchor="middle" font-size="13" fill="#0f172a">Proxy</text>
<line x1="590" y1="110" x2="590" y2="6518" stroke="#94a3b8" stroke-dasharray="6,6"/>
<rect x="820" y="76" width="160" height="30" rx="6" fill="#e2e8f0" stroke="#94a3b8"/>
<text x="900" y="96" text-anchor="middle" font-size="13" fill="#0f172a">Server</text>
<line x1="900" y1="110" x2="900" y2="6518" stroke="#94a3b8" stroke-dasharray="6,6"/>
<rect x="120" y="124" width="1010" height="738" fill="#f8fafc" stroke="none"/>
<text x="130" y="138" font-size="12" fill="#334155">Connection 1 [no failure] (conn_id=1019491296)</text>
<rect x="120" y="884" width="1010" height="812" fill="#f1f5f9" stroke="none"/>
<text x="130" y="898" font-size="12" fill="#334155">Connection 2 [drop C->S #1] (conn_id=-1086659517)</text>
<line x1="120" y1="884" x2="1130" y2="884" stroke="#94a3b8" stroke-width="1.4"/>
<rect x="120" y="1718" width="1010" height="750" fill="#f8fafc" stroke="none"/>
<text x="130" y="1732" font-size="12" fill="#334155">Connection 3 [drop S->C #1] (conn_id=1830453426)</text>
<line x1="120" y1="1718" x2="1130" y2="1718" stroke="#94a3b8" stroke-width="1.4"/>
<rect x="120" y="2490" width="1010" height="750" fill="#f1f5f9" stroke="none"/>
<text x="130" y="2504" font-size="12" fill="#334155">Connection 4 [drop C->S #2] (conn_id=-152017453)</text>
<line x1="120" y1="2490" x2="1130" y2="2490" stroke="#94a3b8" stroke-width="1.4"/>
<rect x="120" y="3262" width="1010" height="812" fill="#f8fafc" stroke="none"/>
<text x="130" y="3276" font-size="12" fill="#334155">Connection 5 [drop S->C #2] (conn_id=-937270449)</text>
<line x1="120" y1="3262" x2="1130" y2="3262" stroke="#94a3b8" stroke-width="1.4"/>
<rect x="120" y="4096" width="1010" height="812" fill="#f1f5f9" stroke="none"/>
<text x="130" y="4110" font-size="12" fill="#334155">Connection 6 [drop C->S #3] (conn_id=766973727)</text>
<line x1="120" y1="4096" x2="1130" y2="4096" stroke="#94a3b8" stroke-width="1.4"/>
<rect x="120" y="4930" width="1010" height="750" fill="#f8fafc" stroke="none"/>
<text x="130" y="4944" font-size="12" fill="#334155">Connection 7 [drop S->C #3] (conn_id=1777967188)</text>
<line x1="120" y1="4930" x2="1130" y2="4930" stroke="#94a3b8" stroke-width="1.4"/>
<rect x="120" y="5702" width="1010" height="750" fill="#f1f5f9" stroke="none"/>
<text x="130" y="5716" font-size="12" fill="#334155">Connection 8 [drop C->S #4] (conn_id=910320586)</text>
<line x1="120" y1="5702" x2="1130" y2="5702" stroke="#94a3b8" stroke-width="1.4"/>
<text x="30" y="151" font-size="12" fill="#64748b">137.9ms</text>
<line x1="280" y1="146" x2="900" y2="146" stroke="#d97706" stroke-width="2.2" marker-end="url(#arrowAmber)"/>
<text x="590" y="138" text-anchor="middle" font-size="12" fill="#0f172a">#1 SYN conn=1019491296 seq=0 payload=&quot;&quot; (16B)</text>
<text x="30" y="213" font-size="12" fill="#64748b">149.6ms</text>
<line x1="900" y1="208" x2="280" y2="208" stroke="#059669" stroke-width="2.2" marker-end="url(#arrowGreen)"/>
<text x="590" y="200" text-anchor="middle" font-size="12" fill="#0f172a">#2 ACK conn=1019491296 seq=0 payload=&quot;ack_of=SYN&quot; (17B)</text>
<text x="30" y="275" font-size="12" fill="#64748b">153.3ms</text>
<line x1="900" y1="270" x2="280" y2="270" stroke="#d97706" stroke-width="2.2" marker-end="url(#arrowAmber)"/>
<text x="590" y="262" text-anchor="middle" font-size="12" fill="#0f172a">#3 SYN conn=1019491296 seq=0 payload=&quot;&quot; (16B)</text>
<text x="30" y="337" font-size="12" fill="#64748b">154.2ms</text>
<line x1="280" y1="332" x2="900" y2="332" stroke="#059669" stroke-width="2.2" marker-end="url(#arrowGreen)"/>
<text x="590" y="324" text-anchor="middle" font-size="12" fill="#0f172a">#4 ACK conn=1019491296 seq=0 payload=&quot;ack_of=SYN&quot; (17B)</text>
<text x="30" y="399" font-size="12" fill="#64748b">154.4ms</text>
<line x1="280" y1="394" x2="900" y2="394" stroke="#1d4ed8" stroke-width="2.2" marker-end="url(#arrowBlue)"/>
<text x="590" y="386" text-anchor="middle" font-size="12" fill="#0f172a">#5 DATA conn=1019491296 seq=1 payload=&quot;trace-0&quot; (23B)</text>
<text x="30" y="461" font-size="12" fill="#64748b">156.9ms</text>
<line x1="900" y1="456" x2="280" y2="456" stroke="#059669" stroke-width="2.2" marker-end="url(#arrowGreen)"/>
<text x="590" y="448" text-anchor="middle" font-size="12" fill="#0f172a">#6 ACK conn=1019491296 seq=1 payload=&quot;ack_of=DATA&quot; (17B)</text>
<text x="30" y="523" font-size="12" fill="#64748b">157.4ms</text>
<line x1="900" y1="518" x2="280" y2="518" stroke="#1d4ed8" stroke-width="2.2" marker-end="url(#arrowBlue)"/>
<text x="590" y="510" text-anchor="middle" font-size="12" fill="#0f172a">#7 DATA conn=1019491296 seq=1 payload=&quot;Received trace-0&quot; (32B)</text>
<text x="30" y="585" font-size="12" fill="#64748b">157.6ms</text>
<line x1="280" y1="580" x2="900" y2="580" stroke="#059669" stroke-width="2.2" marker-end="url(#arrowGreen)"/>
<text x="590" y="572" text-anchor="middle" font-size="12" fill="#0f172a">#8 ACK conn=1019491296 seq=1 payload=&quot;ack_of=DATA&quot; (17B)</text>
<text x="30" y="647" font-size="12" fill="#64748b">157.6ms</text>
<line x1="900" y1="642" x2="280" y2="642" stroke="#0f766e" stroke-width="2.2" marker-end="url(#arrowTeal)"/>
<text x="590" y="634" text-anchor="middle" font-size="12" fill="#0f172a">#9 FIN conn=1019491296 seq=2 payload=&quot;&quot; (16B)</text>
<text x="30" y="709" font-size="12" fill="#64748b">157.7ms</text>
<line x1="280" y1="704" x2="900" y2="704" stroke="#059669" stroke-width="2.2" marker-end="url(#arrowGreen)"/>
<text x="590" y="696" text-anchor="middle" font-size="12" fill="#0f172a">#10 ACK conn=1019491296 seq=2 payload=&quot;ack_of=FIN&quot; (17B)</text>
<text x="30" y="771" font-size="12" fill="#64748b">157.8ms</text>
<line x1="280" y1="766" x2="900" y2="766" stroke="#0f766e" stroke-width="2.2" marker-end="url(#arrowTeal)"/>
<text x="590" y="758" text-anchor="middle" font-size="12" fill="#0f172a">#11 FIN conn=1019491296 seq=2 payload=&quot;&quot; (16B)</text>
<text x="30" y="833" font-size="12" fill="#64748b">158.6ms</text>
<line x1="900" y1="828" x2="280" y2="828" stroke="#059669" stroke-width="2.2" marker-end="url(#arrowGreen)"/>
<text x="590" y="820" text-anchor="middle" font-size="12" fill="#0f172a">#12 ACK conn=1019491296 seq=2 payload=&quot;ack_of=FIN&quot; (17B)</text>
<text x="30" y="923" font-size="12" fill="#64748b">806.2ms</text>
<line x1="280" y1="918" x2="590" y2="918" stroke="#dc2626" stroke-width="2.2" marker-end="url(#arrowRed)"/>
<line x1="584" y1="912" x2="596" y2="924" stroke="#b91c1c" stroke-width="2"/>
<line x1="584" y1="924" x2="596" y2="912" stroke="#b91c1c" stroke-width="2"/>
<text x="435" y="938" text-anchor="middle" font-size="12" fill="#991b1b">#1 DROP SYN conn=-1086659517 seq=0 payload=&quot;&quot; (16B)</text>
<text x="30" y="985" font-size="12" fill="#64748b">901.0ms</text>
<line x1="280" y1="980" x2="900" y2="980" stroke="#d97706" stroke-width="2.2" marker-end="url(#arrowAmber)"/>
<text x="590" y="972" text-anchor="middle" font-size="12" fill="#0f172a">#2 SYN conn=-1086659517 seq=0 payload=&quot;&quot; (16B)</text>
<text x="30" y="1047" font-size="12" fill="#64748b">901.4ms</text>
<line x1="900" y1="1042" x2="280" y2="1042" stroke="#059669" stroke-width="2.2" marker-end="url(#arrowGreen)"/>
<text x="590" y="1034" text-anchor="middle" font-size="12" fill="#0f172a">#3 ACK conn=-1086659517 seq=0 payload=&quot;ack_of=SYN&quot; (17B)</text>
<text x="30" y="1109" font-size="12" fill="#64748b">901.4ms</text>
<line x1="900" y1="1104" x2="280" y2="1104" stroke="#d97706" stroke-width="2.2" marker-end="url(#arrowAmber)"/>
<text x="590" y="1096" text-anchor="middle" font-size="12" fill="#0f172a">#4 SYN conn=-1086659517 seq=0 payload=&quot;&quot; (16B)</text>
<text x="30" y="1171" font-size="12" fill="#64748b">903.6ms</text>
<line x1="280" y1="1166" x2="900" y2="1166" stroke="#059669" stroke-width="2.2" marker-end="url(#arrowGreen)"/>
<text x="590" y="1158" text-anchor="middle" font-size="12" fill="#0f172a">#5 ACK conn=-1086659517 seq=0 payload=&quot;ack_of=SYN&quot; (17B)</text>
<text x="30" y="1233" font-size="12" fill="#64748b">903.9ms</text>
<line x1="280" y1="1228" x2="900" y2="1228" stroke="#1d4ed8" stroke-width="2.2" marker-end="url(#arrowBlue)"/>
<text x="590" y="1220" text-anchor="middle" font-size="12" fill="#0f172a">#6 DATA conn=-1086659517 seq=1 payload=&quot;trace-1&quot; (23B)</text>
<text x="30" y="1295" font-size="12" fill="#64748b">904.0ms</text>
<line x1="900" y1="1290" x2="280" y2="1290" stroke="#059669" stroke-width="2.2" marker-end="url(#arrowGreen)"/>
<text x="590" y="1282" text-anchor="middle" font-size="12" fill="#0f172a">#7 ACK conn=-1086659517 seq=1 payload=&quot;ack_of=DATA&quot; (17B)</text>
<text x="30" y="1357" font-size="12" fill="#64748b">904.2ms</text>
<line x1="900" y1="1352" x2="280" y2="1352" stroke="#1d4ed8" stroke-width="2.2" marker-end="url(#arrowBlue)"/>
<text x="590" y="1344" text-anchor="middle" font-size="12" fill="#0f172a">#8 DATA conn=-1086659517 seq=1 payload=&quot;Received trace-1&quot; (32B)</text>
<text x="30" y="1419" font-size="12" fill="#64748b">904.3ms</text>
<line x1="900" y1="1414" x2="280" y2="1414" stroke="#0f766e" stroke-width="2.2" marker-end="url(#arrowTeal)"/>
<text x="590" y="1406" text-anchor="middle" font-size="12" fill="#0f172a">#9 FIN conn=-1086659517 seq=2 payload=&quot;&quot; (16B)</text>
<text x="30" y="1481" font-size="12" fill="#64748b">904.4ms</text>
<line x1="280" y1="1476" x2="900" y2="1476" stroke="#059669" stroke-width="2.2" marker-end="url(#arrowGreen)"/>
<text x="590" y="1468" text-anchor="middle" font-size="12" fill="#0f172a">#10 ACK conn=-1086659517 seq=1 payload=&quot;ack_of=DATA&quot; (17B)</text>
<text x="30" y="1543" font-size="12" fill="#64748b">904.5ms</text>
<line x1="280" y1="1538" x2="900" y2="1538" stroke="#059669" stroke-width="2.2" marker-end="url(#arrowGreen)"/>
<text x="590" y="1530" text-anchor="middle" font-size="12" fill="#0f172a">#11 ACK conn=-1086659517 seq=2 payload=&quot;ack_of=FIN&quot; (17B)</text>
<text x="30" y="1605" font-size="12" fill="#64748b">904.6ms</text>
<line x1="280" y1="1600" x2="900" y2="1600" stroke="#0f766e" stroke-width="2.2" marker-end="url(#arrowTeal)"/>
<text x="590" y="1592" text-anchor="middle" font-size="12" fill="#0f172a">#12 FIN conn=-1086659517 seq=2 payload=&quot;&quot; (16B)</text>
<text x="30" y="1667" font-size="12" fill="#64748b">904.7ms</text>
<line x1="900" y1="1662" x2="280" y2="1662" stroke="#059669" stroke-width="2.2" marker-end="url(#arrowGreen)"/>
<text x="590" y="1654" text-anchor="middle" font-size="12" fill="#0f172a">#13 ACK conn=-1086659517 seq=2 payload=&quot;ack_of=FIN&quot; (17B)</text>
<text x="30" y="1757" font-size="12" fill="#64748b">1556.6ms</text>
<line x1="280" y1="1752" x2="900" y2="1752" stroke="#d97706" stroke-width="2.2" marker-end="url(#arrowAmber)"/>
<text x="590" y="1744" text-anchor="middle" font-size="12" fill="#0f172a">#1 SYN conn=1830453426 seq=0 payload=&quot;&quot; (16B)</text>
<text x="30" y="1819" font-size="12" fill="#64748b">1556.9ms</text>
<line x1="900" y1="1814" x2="590" y2="1814" stroke="#dc2626" stroke-width="2.2" marker-end="url(#arrowRed)"/>
<line x1="584" y1="1808" x2="596" y2="1820" stroke="#b91c1c" stroke-width="2"/>
<line x1="584" y1="1820" x2="596" y2="1808" stroke="#b91c1c" stroke-width="2"/>
<text x="745" y="1834" text-anchor="middle" font-size="12" fill="#991b1b">#2 DROP ACK conn=1830453426 seq=0 payload=&quot;ack_of=SYN&quot; (17B)</text>
<text x="30" y="1881" font-size="12" fill="#64748b">1557.0ms</text>
<line x1="900" y1="1876" x2="280" y2="1876" stroke="#d97706" stroke-width="2.2" marker-end="url(#arrowAmber)"/>
<text x="590" y="1868" text-anchor="middle" font-size="12" fill="#0f172a">#3 SYN conn=1830453426 seq=0 payload=&quot;&quot; (16B)</text>
<text x="30" y="1943" font-size="12" fill="#64748b">1558.4ms</text>
<line x1="280" y1="1938" x2="900" y2="1938" stroke="#059669" stroke-width="2.2" marker-end="url(#arrowGreen)"/>
<text x="590" y="1930" text-anchor="middle" font-size="12" fill="#0f172a">#4 ACK conn=1830453426 seq=0 payload=&quot;ack_of=SYN&quot; (17B)</text>
<text x="30" y="2005" font-size="12" fill="#64748b">1561.1ms</text>
<line x1="280" y1="2000" x2="900" y2="2000" stroke="#1d4ed8" stroke-width="2.2" marker-end="url(#arrowBlue)"/>
<text x="590" y="1992" text-anchor="middle" font-size="12" fill="#0f172a">#5 DATA conn=1830453426 seq=1 payload=&quot;trace-2&quot; (23B)</text>
<text x="30" y="2067" font-size="12" fill="#64748b">1561.3ms</text>
<line x1="900" y1="2062" x2="280" y2="2062" stroke="#059669" stroke-width="2.2" marker-end="url(#arrowGreen)"/>
<text x="590" y="2054" text-anchor="middle" font-size="12" fill="#0f172a">#6 ACK conn=1830453426 seq=1 payload=&quot;ack_of=DATA&quot; (17B)</text>
<text x="30" y="2129" font-size="12" fill="#64748b">1561.5ms</text>
<line x1="900" y1="2124" x2="280" y2="2124" stroke="#1d4ed8" stroke-width="2.2" marker-end="url(#arrowBlue)"/>
<text x="590" y="2116" text-anchor="middle" font-size="12" fill="#0f172a">#7 DATA conn=1830453426 seq=1 payload=&quot;Received trace-2&quot; (32B)</text>
<text x="30" y="2191" font-size="12" fill="#64748b">1561.6ms</text>
<line x1="900" y1="2186" x2="280" y2="2186" stroke="#0f766e" stroke-width="2.2" marker-end="url(#arrowTeal)"/>
<text x="590" y="2178" text-anchor="middle" font-size="12" fill="#0f172a">#8 FIN conn=1830453426 seq=2 payload=&quot;&quot; (16B)</text>
<text x="30" y="2253" font-size="12" fill="#64748b">1561.7ms</text>
<line x1="280" y1="2248" x2="900" y2="2248" stroke="#059669" stroke-width="2.2" marker-end="url(#arrowGreen)"/>
<text x="590" y="2240" text-anchor="middle" font-size="12" fill="#0f172a">#9 ACK conn=1830453426 seq=1 payload=&quot;ack_of=DATA&quot; (17B)</text>
<text x="30" y="2315" font-size="12" fill="#64748b">1561.8ms</text>
<line x1="280" y1="2310" x2="900" y2="2310" stroke="#059669" stroke-width="2.2" marker-end="url(#arrowGreen)"/>
<text x="590" y="2302" text-anchor="middle" font-size="12" fill="#0f172a">#10 ACK conn=1830453426 seq=2 payload=&quot;ack_of=FIN&quot; (17B)</text>
<text x="30" y="2377" font-size="12" fill="#64748b">1562.0ms</text>
<line x1="280" y1="2372" x2="900" y2="2372" stroke="#0f766e" stroke-width="2.2" marker-end="url(#arrowTeal)"/>
<text x="590" y="2364" text-anchor="middle" font-size="12" fill="#0f172a">#11 FIN conn=1830453426 seq=2 payload=&quot;&quot; (16B)</text>
<text x="30" y="2439" font-size="12" fill="#64748b">1562.1ms</text>
<line x1="900" y1="2434" x2="280" y2="2434" stroke="#059669" stroke-width="2.2" marker-end="url(#arrowGreen)"/>
<text x="590" y="2426" text-anchor="middle" font-size="12" fill="#0f172a">#12 ACK conn=1830453426 seq=2 payload=&quot;ack_of=FIN&quot; (17B)</text>
<text x="30" y="2529" font-size="12" fill="#64748b">2207.7ms</text>
<line x1="280" y1="2524" x2="900" y2="2524" stroke="#d97706" stroke-width="2.2" marker-end="url(#arrowAmber)"/>
<text x="590" y="2516" text-anchor="middle" font-size="12" fill="#0f172a">#1 SYN conn=-152017453 seq=0 payload=&quot;&quot; (16B)</text>
<text x="30" y="2591" font-size="12" fill="#64748b">2208.1ms</text>
<line x1="900" y1="2586" x2="280" y2="2586" stroke="#059669" stroke-width="2.2" marker-end="url(#arrowGreen)"/>
<text x="590" y="2578" text-anchor="middle" font-size="12" fill="#0f172a">#2 ACK conn=-152017453 seq=0 payload=&quot;ack_of=SYN&quot; (17B)</text>
<text x="30" y="2653" font-size="12" fill="#64748b">2208.1ms</text>
<line x1="900" y1="2648" x2="280" y2="2648" stroke="#d97706" stroke-width="2.2" marker-end="url(#arrowAmber)"/>
<text x="590" y="2640" text-anchor="middle" font-size="12" fill="#0f172a">#3 SYN conn=-152017453 seq=0 payload=&quot;&quot; (16B)</text>
<text x="30" y="2715" font-size="12" fill="#64748b">2212.2ms</text>
<line x1="280" y1="2710" x2="590" y2="2710" stroke="#dc2626" stroke-width="2.2" marker-end="url(#arrowRed)"/>
<line x1="584" y1="2704" x2="596" y2="2716" stroke="#b91c1c" stroke-width="2"/>
<line x1="584" y1="2716" x2="596" y2="2704" stroke="#b91c1c" stroke-width="2"/>
<text x="435" y="2730" text-anchor="middle" font-size="12" fill="#991b1b">#4 DROP ACK conn=-152017453 seq=0 payload=&quot;ack_of=SYN&quot; (17B)</text>
<text x="30" y="2777" font-size="12" fill="#64748b">2212.5ms</text>
<line x1="280" y1="2772" x2="900" y2="2772" stroke="#1d4ed8" stroke-width="2.2" marker-end="url(#arrowBlue)"/>
<text x="590" y="2764" text-anchor="middle" font-size="12" fill="#0f172a">#5 DATA conn=-152017453 seq=1 payload=&quot;trace-3&quot; (23B)</text>
<text x="30" y="2839" font-size="12" fill="#64748b">2212.7ms</text>
<line x1="900" y1="2834" x2="280" y2="2834" stroke="#059669" stroke-width="2.2" marker-end="url(#arrowGreen)"/>
<text x="590" y="2826" text-anchor="middle" font-size="12" fill="#0f172a">#6 ACK conn=-152017453 seq=1 payload=&quot;ack_of=DATA&quot; (17B)</text>
<text x="30" y="2901" font-size="12" fill="#64748b">2212.8ms</text>
<line x1="900" y1="2896" x2="280" y2="2896" stroke="#1d4ed8" stroke-width="2.2" marker-end="url(#arrowBlue)"/>
<text x="590" y="2888" text-anchor="middle" font-size="12" fill="#0f172a">#7 DATA conn=-152017453 seq=1 payload=&quot;Received trace-3&quot; (32B)</text>
<text x="30" y="2963" font-size="12" fill="#64748b">2212.9ms</text>
<line x1="900" y1="2958" x2="280" y2="2958" stroke="#0f766e" stroke-width="2.2" marker-end="url(#arrowTeal)"/>
<text x="590" y="2950" text-anchor="middle" font-size="12" fill="#0f172a">#8 FIN conn=-152017453 seq=2 payload=&quot;&quot; (16B)</text>
<text x="30" y="3025" font-size="12" fill="#64748b">2213.0ms</text>
<line x1="280" y1="3020" x2="900" y2="3020" stroke="#059669" stroke-width="2.2" marker-end="url(#arrowGreen)"/>
<text x="590" y="3012" text-anchor="middle" font-size="12" fill="#0f172a">#9 ACK conn=-152017453 seq=1 payload=&quot;ack_of=DATA&quot; (17B)</text>
<text x="30" y="3087" font-size="12" fill="#64748b">2213.1ms</text>
<line x1="280" y1="3082" x2="900" y2="3082" stroke="#059669" stroke-width="2.2" marker-end="url(#arrowGreen)"/>
<text x="590" y="3074" text-anchor="middle" font-size="12" fill="#0f172a">#10 ACK conn=-152017453 seq=2 payload=&quot;ack_of=FIN&quot; (17B)</text>
<text x="30" y="3149" font-size="12" fill="#64748b">2213.3ms</text>
<line x1="280" y1="3144" x2="900" y2="3144" stroke="#0f766e" stroke-width="2.2" marker-end="url(#arrowTeal)"/>
<text x="590" y="3136" text-anchor="middle" font-size="12" fill="#0f172a">#11 FIN conn=-152017453 seq=2 payload=&quot;&quot; (16B)</text>
<text x="30" y="3211" font-size="12" fill="#64748b">2213.6ms</text>
<line x1="900" y1="3206" x2="280" y2="3206" stroke="#059669" stroke-width="2.2" marker-end="url(#arrowGreen)"/>
<text x="590" y="3198" text-anchor="middle" font-size="12" fill="#0f172a">#12 ACK conn=-152017453 seq=2 payload=&quot;ack_of=FIN&quot; (17B)</text>
<text x="30" y="3301" font-size="12" fill="#64748b">2865.3ms</text>
<line x1="280" y1="3296" x2="900" y2="3296" stroke="#d97706" stroke-width="2.2" marker-end="url(#arrowAmber)"/>
<text x="590" y="3288" text-anchor="middle" font-size="12" fill="#0f172a">#1 SYN conn=-937270449 seq=0 payload=&quot;&quot; (16B)</text>
<text x="30" y="3363" font-size="12" fill="#64748b">2865.6ms</text>
<line x1="900" y1="3358" x2="280" y2="3358" stroke="#059669" stroke-width="2.2" marker-end="url(#arrowGreen)"/>
<text x="590" y="3350" text-anchor="middle" font-size="12" fill="#0f172a">#2 ACK conn=-937270449 seq=0 payload=&quot;ack_of=SYN&quot; (17B)</text>
<text x="30" y="3425" font-size="12" fill="#64748b">2865.7ms</text>
<line x1="900" y1="3420" x2="590" y2="3420" stroke="#dc2626" stroke-width="2.2" marker-end="url(#arrowRed)"/>
<line x1="584" y1="3414" x2="596" y2="3426" stroke="#b91c1c" stroke-width="2"/>
<line x1="584" y1="3426" x2="596" y2="3414" stroke="#b91c1c" stroke-width="2"/>
<text x="745" y="3440" text-anchor="middle" font-size="12" fill="#991b1b">#3 DROP SYN conn=-937270449 seq=0 payload=&quot;&quot; (16B)</text>
<text x="30" y="3487" font-size="12" fill="#64748b">2967.2ms</text>
<line x1="900" y1="3482" x2="280" y2="3482" stroke="#d97706" stroke-width="2.2" marker-end="url(#arrowAmber)"/>
<text x="590" y="3474" text-anchor="middle" font-size="12" fill="#0f172a">#4 SYN conn=-937270449 seq=0 payload=&quot;&quot; (16B)</text>
<text x="30" y="3549" font-size="12" fill="#64748b">2968.6ms</text>
<line x1="280" y1="3544" x2="900" y2="3544" stroke="#059669" stroke-width="2.2" marker-end="url(#arrowGreen)"/>
<text x="590" y="3536" text-anchor="middle" font-size="12" fill="#0f172a">#5 ACK conn=-937270449 seq=0 payload=&quot;ack_of=SYN&quot; (17B)</text>
<text x="30" y="3611" font-size="12" fill="#64748b">2968.8ms</text>
<line x1="280" y1="3606" x2="900" y2="3606" stroke="#1d4ed8" stroke-width="2.2" marker-end="url(#arrowBlue)"/>
<text x="590" y="3598" text-anchor="middle" font-size="12" fill="#0f172a">#6 DATA conn=-937270449 seq=1 payload=&quot;trace-4&quot; (23B)</text>
<text x="30" y="3673" font-size="12" fill="#64748b">2969.0ms</text>
<line x1="900" y1="3668" x2="280" y2="3668" stroke="#059669" stroke-width="2.2" marker-end="url(#arrowGreen)"/>
<text x="590" y="3660" text-anchor="middle" font-size="12" fill="#0f172a">#7 ACK conn=-937270449 seq=1 payload=&quot;ack_of=DATA&quot; (17B)</text>
<text x="30" y="3735" font-size="12" fill="#64748b">2969.1ms</text>
<line x1="900" y1="3730" x2="280" y2="3730" stroke="#1d4ed8" stroke-width="2.2" marker-end="url(#arrowBlue)"/>
<text x="590" y="3722" text-anchor="middle" font-size="12" fill="#0f172a">#8 DATA conn=-937270449 seq=1 payload=&quot;Received trace-4&quot; (32B)</text>
<text x="30" y="3797" font-size="12" fill="#64748b">2969.1ms</text>
<line x1="900" y1="3792" x2="280" y2="3792" stroke="#0f766e" stroke-width="2.2" marker-end="url(#arrowTeal)"/>
<text x="590" y="3784" text-anchor="middle" font-size="12" fill="#0f172a">#9 FIN conn=-937270449 seq=2 payload=&quot;&quot; (16B)</text>
<text x="30" y="3859" font-size="12" fill="#64748b">2969.2ms</text>
<line x1="280" y1="3854" x2="900" y2="3854" stroke="#059669" stroke-width="2.2" marker-end="url(#arrowGreen)"/>
<text x="590" y="3846" text-anchor="middle" font-size="12" fill="#0f172a">#10 ACK conn=-937270449 seq=1 payload=&quot;ack_of=DATA&quot; (17B)</text>
<text x="30" y="3921" font-size="12" fill="#64748b">2969.3ms</text>
<line x1="280" y1="3916" x2="900" y2="3916" stroke="#059669" stroke-width="2.2" marker-end="url(#arrowGreen)"/>
<text x="590" y="3908" text-anchor="middle" font-size="12" fill="#0f172a">#11 ACK conn=-937270449 seq=2 payload=&quot;ack_of=FIN&quot; (17B)</text>
<text x="30" y="3983" font-size="12" fill="#64748b">2969.5ms</text>
<line x1="280" y1="3978" x2="900" y2="3978" stroke="#0f766e" stroke-width="2.2" marker-end="url(#arrowTeal)"/>
<text x="590" y="3970" text-anchor="middle" font-size="12" fill="#0f172a">#12 FIN conn=-937270449 seq=2 payload=&quot;&quot; (16B)</text>
<text x="30" y="4045" font-size="12" fill="#64748b">2969.7ms</text>
<line x1="900" y1="4040" x2="280" y2="4040" stroke="#059669" stroke-width="2.2" marker-end="url(#arrowGreen)"/>
<text x="590" y="4032" text-anchor="middle" font-size="12" fill="#0f172a">#13 ACK conn=-937270449 seq=2 payload=&quot;ack_of=FIN&quot; (17B)</text>
<text x="30" y="4135" font-size="12" fill="#64748b">3618.9ms</text>
<line x1="280" y1="4130" x2="900" y2="4130" stroke="#d97706" stroke-width="2.2" marker-end="url(#arrowAmber)"/>
<text x="590" y="4122" text-anchor="middle" font-size="12" fill="#0f172a">#1 SYN conn=766973727 seq=0 payload=&quot;&quot; (16B)</text>
<text x="30" y="4197" font-size="12" fill="#64748b">3619.3ms</text>
<line x1="900" y1="4192" x2="280" y2="4192" stroke="#059669" stroke-width="2.2" marker-end="url(#arrowGreen)"/>
<text x="590" y="4184" text-anchor="middle" font-size="12" fill="#0f172a">#2 ACK conn=766973727 seq=0 payload=&quot;ack_of=SYN&quot; (17B)</text>
<text x="30" y="4259" font-size="12" fill="#64748b">3619.4ms</text>
<line x1="900" y1="4254" x2="280" y2="4254" stroke="#d97706" stroke-width="2.2" marker-end="url(#arrowAmber)"/>
<text x="590" y="4246" text-anchor="middle" font-size="12" fill="#0f172a">#3 SYN conn=766973727 seq=0 payload=&quot;&quot; (16B)</text>
<text x="30" y="4321" font-size="12" fill="#64748b">3623.2ms</text>
<line x1="280" y1="4316" x2="900" y2="4316" stroke="#059669" stroke-width="2.2" marker-end="url(#arrowGreen)"/>
<text x="590" y="4308" text-anchor="middle" font-size="12" fill="#0f172a">#4 ACK conn=766973727 seq=0 payload=&quot;ack_of=SYN&quot; (17B)</text>
<text x="30" y="4383" font-size="12" fill="#64748b">3623.5ms</text>
<line x1="280" y1="4378" x2="590" y2="4378" stroke="#dc2626" stroke-width="2.2" marker-end="url(#arrowRed)"/>
<line x1="584" y1="4372" x2="596" y2="4384" stroke="#b91c1c" stroke-width="2"/>
<line x1="584" y1="4384" x2="596" y2="4372" stroke="#b91c1c" stroke-width="2"/>
<text x="435" y="4398" text-anchor="middle" font-size="12" fill="#991b1b">#5 DROP DATA conn=766973727 seq=1 payload=&quot;trace-5&quot; (23B)</text>
<text x="30" y="4445" font-size="12" fill="#64748b">3727.6ms</text>
<line x1="280" y1="4440" x2="900" y2="4440" stroke="#1d4ed8" stroke-width="2.2" marker-end="url(#arrowBlue)"/>
<text x="590" y="4432" text-anchor="middle" font-size="12" fill="#0f172a">#6 DATA conn=766973727 seq=1 payload=&quot;trace-5&quot; (23B)</text>
<text x="30" y="4507" font-size="12" fill="#64748b">3727.8ms</text>
<line x1="900" y1="4502" x2="280" y2="4502" stroke="#059669" stroke-width="2.2" marker-end="url(#arrowGreen)"/>
<text x="590" y="4494" text-anchor="middle" font-size="12" fill="#0f172a">#7 ACK conn=766973727 seq=1 payload=&quot;ack_of=DATA&quot; (17B)</text>
<text x="30" y="4569" font-size="12" fill="#64748b">3728.1ms</text>
<line x1="900" y1="4564" x2="280" y2="4564" stroke="#1d4ed8" stroke-width="2.2" marker-end="url(#arrowBlue)"/>
<text x="590" y="4556" text-anchor="middle" font-size="12" fill="#0f172a">#8 DATA conn=766973727 seq=1 payload=&quot;Received trace-5&quot; (32B)</text>
<text x="30" y="4631" font-size="12" fill="#64748b">3728.1ms</text>
<line x1="900" y1="4626" x2="280" y2="4626" stroke="#0f766e" stroke-width="2.2" marker-end="url(#arrowTeal)"/>
<text x="590" y="4618" text-anchor="middle" font-size="12" fill="#0f172a">#9 FIN conn=766973727 seq=2 payload=&quot;&quot; (16B)</text>
<text x="30" y="4693" font-size="12" fill="#64748b">3728.2ms</text>
<line x1="280" y1="4688" x2="900" y2="4688" stroke="#059669" stroke-width="2.2" marker-end="url(#arrowGreen)"/>
<text x="590" y="4680" text-anchor="middle" font-size="12" fill="#0f172a">#10 ACK conn=766973727 seq=1 payload=&quot;ack_of=DATA&quot; (17B)</text>
<text x="30" y="4755" font-size="12" fill="#64748b">3728.3ms</text>
<line x1="280" y1="4750" x2="900" y2="4750" stroke="#059669" stroke-width="2.2" marker-end="url(#arrowGreen)"/>
<text x="590" y="4742" text-anchor="middle" font-size="12" fill="#0f172a">#11 ACK conn=766973727 seq=2 payload=&quot;ack_of=FIN&quot; (17B)</text>
<text x="30" y="4817" font-size="12" fill="#64748b">3728.7ms</text>
<line x1="280" y1="4812" x2="900" y2="4812" stroke="#0f766e" stroke-width="2.2" marker-end="url(#arrowTeal)"/>
<text x="590" y="4804" text-anchor="middle" font-size="12" fill="#0f172a">#12 FIN conn=766973727 seq=2 payload=&quot;&quot; (16B)</text>
<text x="30" y="4879" font-size="12" fill="#64748b">3728.8ms</text>
<line x1="900" y1="4874" x2="280" y2="4874" stroke="#059669" stroke-width="2.2" marker-end="url(#arrowGreen)"/>
<text x="590" y="4866" text-anchor="middle" font-size="12" fill="#0f172a">#13 ACK conn=766973727 seq=2 payload=&quot;ack_of=FIN&quot; (17B)</text>
<text x="30" y="4969" font-size="12" fill="#64748b">4385.0ms</text>
<line x1="280" y1="4964" x2="900" y2="4964" stroke="#d97706" stroke-width="2.2" marker-end="url(#arrowAmber)"/>
<text x="590" y="4956" text-anchor="middle" font-size="12" fill="#0f172a">#1 SYN conn=1777967188 seq=0 payload=&quot;&quot; (16B)</text>
<text x="30" y="5031" font-size="12" fill="#64748b">4385.3ms</text>
<line x1="900" y1="5026" x2="280" y2="5026" stroke="#059669" stroke-width="2.2" marker-end="url(#arrowGreen)"/>
<text x="590" y="5018" text-anchor="middle" font-size="12" fill="#0f172a">#2 ACK conn=1777967188 seq=0 payload=&quot;ack_of=SYN&quot; (17B)</text>
<text x="30" y="5093" font-size="12" fill="#64748b">4385.4ms</text>
<line x1="900" y1="5088" x2="280" y2="5088" stroke="#d97706" stroke-width="2.2" marker-end="url(#arrowAmber)"/>
<text x="590" y="5080" text-anchor="middle" font-size="12" fill="#0f172a">#3 SYN conn=1777967188 seq=0 payload=&quot;&quot; (16B)</text>
<text x="30" y="5155" font-size="12" fill="#64748b">4389.6ms</text>
<line x1="280" y1="5150" x2="900" y2="5150" stroke="#059669" stroke-width="2.2" marker-end="url(#arrowGreen)"/>
<text x="590" y="5142" text-anchor="middle" font-size="12" fill="#0f172a">#4 ACK conn=1777967188 seq=0 payload=&quot;ack_of=SYN&quot; (17B)</text>
<text x="30" y="5217" font-size="12" fill="#64748b">4389.8ms</text>
<line x1="280" y1="5212" x2="900" y2="5212" stroke="#1d4ed8" stroke-width="2.2" marker-end="url(#arrowBlue)"/>
<text x="590" y="5204" text-anchor="middle" font-size="12" fill="#0f172a">#5 DATA conn=1777967188 seq=1 payload=&quot;trace-6&quot; (23B)</text>
<text x="30" y="5279" font-size="12" fill="#64748b">4389.9ms</text>
<line x1="900" y1="5274" x2="590" y2="5274" stroke="#dc2626" stroke-width="2.2" marker-end="url(#arrowRed)"/>
<line x1="584" y1="5268" x2="596" y2="5280" stroke="#b91c1c" stroke-width="2"/>
<line x1="584" y1="5280" x2="596" y2="5268" stroke="#b91c1c" stroke-width="2"/>
<text x="745" y="5294" text-anchor="middle" font-size="12" fill="#991b1b">#6 DROP ACK conn=1777967188 seq=1 payload=&quot;ack_of=DATA&quot; (17B)</text>
<text x="30" y="5341" font-size="12" fill="#64748b">4390.1ms</text>
<line x1="900" y1="5336" x2="280" y2="5336" stroke="#1d4ed8" stroke-width="2.2" marker-end="url(#arrowBlue)"/>
<text x="590" y="5328" text-anchor="middle" font-size="12" fill="#0f172a">#7 DATA conn=1777967188 seq=1 payload=&quot;Received trace-6&quot; (32B)</text>
<text x="30" y="5403" font-size="12" fill="#64748b">4390.1ms</text>
<line x1="900" y1="5398" x2="280" y2="5398" stroke="#0f766e" stroke-width="2.2" marker-end="url(#arrowTeal)"/>
<text x="590" y="5390" text-anchor="middle" font-size="12" fill="#0f172a">#8 FIN conn=1777967188 seq=2 payload=&quot;&quot; (16B)</text>
<text x="30" y="5465" font-size="12" fill="#64748b">4390.2ms</text>
<line x1="280" y1="5460" x2="900" y2="5460" stroke="#059669" stroke-width="2.2" marker-end="url(#arrowGreen)"/>
<text x="590" y="5452" text-anchor="middle" font-size="12" fill="#0f172a">#9 ACK conn=1777967188 seq=1 payload=&quot;ack_of=DATA&quot; (17B)</text>
<text x="30" y="5527" font-size="12" fill="#64748b">4390.3ms</text>
<line x1="280" y1="5522" x2="900" y2="5522" stroke="#059669" stroke-width="2.2" marker-end="url(#arrowGreen)"/>
<text x="590" y="5514" text-anchor="middle" font-size="12" fill="#0f172a">#10 ACK conn=1777967188 seq=2 payload=&quot;ack_of=FIN&quot; (17B)</text>
<text x="30" y="5589" font-size="12" fill="#64748b">4390.5ms</text>
<line x1="280" y1="5584" x2="900" y2="5584" stroke="#0f766e" stroke-width="2.2" marker-end="url(#arrowTeal)"/>
<text x="590" y="5576" text-anchor="middle" font-size="12" fill="#0f172a">#11 FIN conn=1777967188 seq=2 payload=&quot;&quot; (16B)</text>
<text x="30" y="5651" font-size="12" fill="#64748b">4390.6ms</text>
<line x1="900" y1="5646" x2="280" y2="5646" stroke="#059669" stroke-width="2.2" marker-end="url(#arrowGreen)"/>
<text x="590" y="5638" text-anchor="middle" font-size="12" fill="#0f172a">#12 ACK conn=1777967188 seq=2 payload=&quot;ack_of=FIN&quot; (17B)</text>
<text x="30" y="5741" font-size="12" fill="#64748b">5037.9ms</text>
<line x1="280" y1="5736" x2="900" y2="5736" stroke="#d97706" stroke-width="2.2" marker-end="url(#arrowAmber)"/>
<text x="590" y="5728" text-anchor="middle" font-size="12" fill="#0f172a">#1 SYN conn=910320586 seq=0 payload=&quot;&quot; (16B)</text>
<text x="30" y="5803" font-size="12" fill="#64748b">5038.2ms</text>
<line x1="900" y1="5798" x2="280" y2="5798" stroke="#059669" stroke-width="2.2" marker-end="url(#arrowGreen)"/>
<text x="590" y="5790" text-anchor="middle" font-size="12" fill="#0f172a">#2 ACK conn=910320586 seq=0 payload=&quot;ack_of=SYN&quot; (17B)</text>
<text x="30" y="5865" font-size="12" fill="#64748b">5038.3ms</text>
<line x1="900" y1="5860" x2="280" y2="5860" stroke="#d97706" stroke-width="2.2" marker-end="url(#arrowAmber)"/>
<text x="590" y="5852" text-anchor="middle" font-size="12" fill="#0f172a">#3 SYN conn=910320586 seq=0 payload=&quot;&quot; (16B)</text>
<text x="30" y="5927" font-size="12" fill="#64748b">5042.2ms</text>
<line x1="280" y1="5922" x2="900" y2="5922" stroke="#059669" stroke-width="2.2" marker-end="url(#arrowGreen)"/>
<text x="590" y="5914" text-anchor="middle" font-size="12" fill="#0f172a">#4 ACK conn=910320586 seq=0 payload=&quot;ack_of=SYN&quot; (17B)</text>
<text x="30" y="5989" font-size="12" fill="#64748b">5042.4ms</text>
<line x1="280" y1="5984" x2="900" y2="5984" stroke="#1d4ed8" stroke-width="2.2" marker-end="url(#arrowBlue)"/>
<text x="590" y="5976" text-anchor="middle" font-size="12" fill="#0f172a">#5 DATA conn=910320586 seq=1 payload=&quot;trace-7&quot; (23B)</text>
<text x="30" y="6051" font-size="12" fill="#64748b">5042.6ms</text>
<line x1="900" y1="6046" x2="280" y2="6046" stroke="#059669" stroke-width="2.2" marker-end="url(#arrowGreen)"/>
<text x="590" y="6038" text-anchor="middle" font-size="12" fill="#0f172a">#6 ACK conn=910320586 seq=1 payload=&quot;ack_of=DATA&quot; (17B)</text>
<text x="30" y="6113" font-size="12" fill="#64748b">5042.7ms</text>
<line x1="900" y1="6108" x2="280" y2="6108" stroke="#1d4ed8" stroke-width="2.2" marker-end="url(#arrowBlue)"/>
<text x="590" y="6100" text-anchor="middle" font-size="12" fill="#0f172a">#7 DATA conn=910320586 seq=1 payload=&quot;Received trace-7&quot; (32B)</text>
<text x="30" y="6175" font-size="12" fill="#64748b">5042.7ms</text>
<line x1="900" y1="6170" x2="280" y2="6170" stroke="#0f766e" stroke-width="2.2" marker-end="url(#arrowTeal)"/>
<text x="590" y="6162" text-anchor="middle" font-size="12" fill="#0f172a">#8 FIN conn=910320586 seq=2 payload=&quot;&quot; (16B)</text>
<text x="30" y="6237" font-size="12" fill="#64748b">5042.9ms</text>
<line x1="280" y1="6232" x2="590" y2="6232" stroke="#dc2626" stroke-width="2.2" marker-end="url(#arrowRed)"/>
<line x1="584" y1="6226" x2="596" y2="6238" stroke="#b91c1c" stroke-width="2"/>
<line x1="584" y1="6238" x2="596" y2="6226" stroke="#b91c1c" stroke-width="2"/>
<text x="435" y="6252" text-anchor="middle" font-size="12" fill="#991b1b">#9 DROP ACK conn=910320586 seq=1 payload=&quot;ack_of=DATA&quot; (17B)</text>
<text x="30" y="6299" font-size="12" fill="#64748b">5042.9ms</text>
<line x1="280" y1="6294" x2="900" y2="6294" stroke="#059669" stroke-width="2.2" marker-end="url(#arrowGreen)"/>
<text x="590" y="6286" text-anchor="middle" font-size="12" fill="#0f172a">#10 ACK conn=910320586 seq=2 payload=&quot;ack_of=FIN&quot; (17B)</text>
<text x="30" y="6361" font-size="12" fill="#64748b">5043.1ms</text>
<line x1="280" y1="6356" x2="900" y2="6356" stroke="#0f766e" stroke-width="2.2" marker-end="url(#arrowTeal)"/>
<text x="590" y="6348" text-anchor="middle" font-size="12" fill="#0f172a">#11 FIN conn=910320586 seq=2 payload=&quot;&quot; (16B)</text>
<text x="30" y="6423" font-size="12" fill="#64748b">5043.2ms</text>
<line x1="900" y1="6418" x2="280" y2="6418" stroke="#059669" stroke-width="2.2" marker-end="url(#arrowGreen)"/>
<text x="590" y="6410" text-anchor="middle" font-size="12" fill="#0f172a">#12 ACK conn=910320586 seq=2 payload=&quot;ack_of=FIN&quot; (17B)</text>
</svg>