<?xml version="1.0" encoding="UTF-8"?>
<svg xmlns="http://www.w3.org/2000/svg" width="1180" height="2906" viewBox="0 0 1180 2906" font-family="Consolas, Menlo, monospace">
<defs>
<marker id="arrowBlue" markerWidth="10" markerHeight="8" refX="9" refY="4" orient="auto"><path d="M0,0 L10,4 L0,8 Z" fill="#1d4ed8"/></marker>
<marker id="arrowGreen" markerWidth="10" markerHeight="8" refX="9" refY="4" orient="auto"><path d="M0,0 L10,4 L0,8 Z" fill="#059669"/></marker>
<marker id="arrowRed" markerWidth="10" markerHeight="8" refX="9" refY="4" orient="auto"><path d="M0,0 L10,4 L0,8 Z" fill="#dc2626"/></marker>
</defs>
<rect x="0" y="0" width="100%" height="100%" fill="#ffffff"/>
<text x="30" y="38" font-size="22" fill="#0f172a" font-weight="700">Java UDP Trace via Proxy (8 connections, auto failure scenarios, server1)</text>
<text x="30" y="62" font-size="13" fill="#334155">Blue=DATA, Green=ACK, Red=errors/drops</text>
<rect x="200" y="76" width="160" height="30" rx="6" fill="#e2e8f0" stroke="#94a3b8"/>
<text x="280" y="96" text-anchor="middle" font-size="13" fill="#0f172a">Client</text>
<line x1="280" y1="110" x2="280" y2="2882" stroke="#94a3b8" stroke-dasharray="6,6"/>
<rect x="510" y="76" width="160" height="30" rx="6" fill="#e2e8f0" stroke="#94a3b8"/>
<text x="590" y="96" text-anchor="middle" font-size="13" fill="#0f172a">Proxy</text>
<line x1="590" y1="110" x2="590" y2="2882" stroke="#94a3b8" stroke-dasharray="6,6"/>
<rect x="820" y="76" width="160" height="30" rx="6" fill="#e2e8f0" stroke="#94a3b8"/>
<text x="900" y="96" text-anchor="middle" font-size="13" fill="#0f172a">Server</text>
<line x1="900" y1="110" x2="900" y2="2882" stroke="#94a3b8" stroke-dasharray="6,6"/>
<rect x="120" y="124" width="1010" height="242" fill="#f8fafc" stroke="none"/>
<text x="130" y="138" font-size="12" fill="#334155">Connection 1 [no failure] (conn_id=-312965186)</text>
<rect x="120" y="388" width="1010" height="316" fill="#f1f5f9" stroke="none"/>
<text x="130" y="402" font-size="12" fill="#334155">Connection 2 [drop C->S #1] (conn_id=-1636100003)</text>
<line x1="120" y1="388" x2="1130" y2="388" stroke="#94a3b8" stroke-width="1.4"/>
<rect x="120" y="726" width="1010" height="254" fill="#f8fafc" stroke="none"/>
<text x="130" y="740" font-size="12" fill="#334155">Connection 3 [drop S->C #1] (conn_id=1015627259)</text>
<line x1="120" y1="726" x2="1130" y2="726" stroke="#94a3b8" stroke-width="1.4"/>
<rect x="120" y="1002" width="1010" height="378" fill="#f1f5f9" stroke="none"/>
<text x="130" y="1016" font-size="12" fill="#334155">Connection 4 [drop C->S #2] (conn_id=-739157799)</text>
<line x1="120" y1="1002" x2="1130" y2="1002" stroke="#94a3b8" stroke-width="1.4"/>
<rect x="120" y="1402" width="1010" height="316" fill="#f8fafc" stroke="none"/>
<text x="130" y="1416" font-size="12" fill="#334155">Connection 5 [drop S->C #2] (conn_id=-122970930)</text>
<line x1="120" y1="1402" x2="1130" y2="1402" stroke="#94a3b8" stroke-width="1.4"/>
<rect x="120" y="1740" width="1010" height="68" fill="#f1f5f9" stroke="none"/>
<text x="130" y="1754" font-size="12" fill="#334155">Connection 4 [drop C->S #2] (conn_id=-739157799)</text>
<line x1="120" y1="1740" x2="1130" y2="1740" stroke="#94a3b8" stroke-width="1.4"/>
<rect x="120" y="1830" width="1010" height="254" fill="#f1f5f9" stroke="none"/>
<text x="130" y="1844" font-size="12" fill="#334155">Connection 6 [drop C->S #3] (conn_id=1110362843)</text>
<line x1="120" y1="1830" x2="1130" y2="1830" stroke="#94a3b8" stroke-width="1.4"/>
<rect x="120" y="2106" width="1010" height="68" fill="#f1f5f9" stroke="none"/>
<text x="130" y="2120" font-size="12" fill="#334155">Connection 4 [drop C->S #2] (conn_id=-739157799)</text>
<line x1="120" y1="2106" x2="1130" y2="2106" stroke="#94a3b8" stroke-width="1.4"/>
<rect x="120" y="2196" width="1010" height="254" fill="#f8fafc" stroke="none"/>
<text x="130" y="2210" font-size="12" fill="#334155">Connection 7 [drop S->C #3] (conn_id=906299853)</text>
<line x1="120" y1="2196" x2="1130" y2="2196" stroke="#94a3b8" stroke-width="1.4"/>
<rect x="120" y="2472" width="1010" height="254" fill="#f1f5f9" stroke="none"/>
<text x="130" y="2486" font-size="12" fill="#334155">Connection 8 [drop C->S #4] (conn_id=-1190347542)</text>
<line x1="120" y1="2472" x2="1130" y2="2472" stroke="#94a3b8" stroke-width="1.4"/>
<rect x="120" y="2748" width="1010" height="68" fill="#f1f5f9" stroke="none"/>
<text x="130" y="2762" font-size="12" fill="#334155">Connection 4 [drop C->S #2] (conn_id=-739157799)</text>
<line x1="120" y1="2748" x2="1130" y2="2748" stroke="#94a3b8" stroke-width="1.4"/>
<text x="30" y="151" font-size="12" fill="#64748b">138.6ms</text>
<line x1="280" y1="146" x2="900" y2="146" stroke="#1d4ed8" stroke-width="2.2" marker-end="url(#arrowBlue)"/>
<text x="590" y="138" text-anchor="middle" font-size="12" fill="#0f172a">#1 DATA conn=-312965186 seq=0 payload=&quot;trace-0&quot; (23B)</text>
<text x="30" y="213" font-size="12" fill="#64748b">142.7ms</text>
<line x1="900" y1="208" x2="280" y2="208" stroke="#059669" stroke-width="2.2" marker-end="url(#arrowGreen)"/>
<text x="590" y="200" text-anchor="middle" font-size="12" fill="#0f172a">#2 ACK conn=-312965186 seq=0 payload=&quot;&quot; (16B)</text>
<text x="30" y="275" font-size="12" fill="#64748b">152.4ms</text>
<line x1="900" y1="270" x2="280" y2="270" stroke="#1d4ed8" stroke-width="2.2" marker-end="url(#arrowBlue)"/>
<text x="590" y="262" text-anchor="middle" font-size="12" fill="#0f172a">#3 DATA conn=-312965186 seq=0 payload=&quot;Received trace-0&quot; (32B)</text>
<text x="30" y="337" font-size="12" fill="#64748b">152.6ms</text>
<line x1="280" y1="332" x2="900" y2="332" stroke="#059669" stroke-width="2.2" marker-end="url(#arrowGreen)"/>
<text x="590" y="324" text-anchor="middle" font-size="12" fill="#0f172a">#4 ACK conn=-312965186 seq=0 payload=&quot;&quot; (16B)</text>
<text x="30" y="427" font-size="12" fill="#64748b">797.3ms</text>
<line x1="280" y1="422" x2="590" y2="422" stroke="#dc2626" stroke-width="2.2" marker-end="url(#arrowRed)"/>
<line x1="584" y1="416" x2="596" y2="428" stroke="#b91c1c" stroke-width="2"/>
<line x1="584" y1="428" x2="596" y2="416" stroke="#b91c1c" stroke-width="2"/>
<text x="435" y="442" text-anchor="middle" font-size="12" fill="#991b1b">#1 DROP DATA conn=-1636100003 seq=0 payload=&quot;trace-1&quot; (23B)</text>
<text x="30" y="489" font-size="12" fill="#64748b">913.2ms</text>
<line x1="280" y1="484" x2="900" y2="484" stroke="#1d4ed8" stroke-width="2.2" marker-end="url(#arrowBlue)"/>
<text x="590" y="476" text-anchor="middle" font-size="12" fill="#0f172a">#2 DATA conn=-1636100003 seq=0 payload=&quot;trace-1&quot; (23B)</text>
<text x="30" y="551" font-size="12" fill="#64748b">913.5ms</text>
<line x1="900" y1="546" x2="280" y2="546" stroke="#059669" stroke-width="2.2" marker-end="url(#arrowGreen)"/>
<text x="590" y="538" text-anchor="middle" font-size="12" fill="#0f172a">#3 ACK conn=-1636100003 seq=0 payload=&quot;&quot; (16B)</text>
<text x="30" y="613" font-size="12" fill="#64748b">913.8ms</text>
<line x1="900" y1="608" x2="280" y2="608" stroke="#1d4ed8" stroke-width="2.2" marker-end="url(#arrowBlue)"/>
<text x="590" y="600" text-anchor="middle" font-size="12" fill="#0f172a">#4 DATA conn=-1636100003 seq=0 payload=&quot;Received trace-1&quot; (32B)</text>
<text x="30" y="675" font-size="12" fill="#64748b">915.0ms</text>
<line x1="280" y1="670" x2="900" y2="670" stroke="#059669" stroke-width="2.2" marker-end="url(#arrowGreen)"/>
<text x="590" y="662" text-anchor="middle" font-size="12" fill="#0f172a">#5 ACK conn=-1636100003 seq=0 payload=&quot;&quot; (16B)</text>
<text x="30" y="765" font-size="12" fill="#64748b">1573.2ms</text>
<line x1="280" y1="760" x2="900" y2="760" stroke="#1d4ed8" stroke-width="2.2" marker-end="url(#arrowBlue)"/>
<text x="590" y="752" text-anchor="middle" font-size="12" fill="#0f172a">#1 DATA conn=1015627259 seq=0 payload=&quot;trace-2&quot; (23B)</text>
<text x="30" y="827" font-size="12" fill="#64748b">1573.5ms</text>
<line x1="900" y1="822" x2="590" y2="822" stroke="#dc2626" stroke-width="2.2" marker-end="url(#arrowRed)"/>
<line x1="584" y1="816" x2="596" y2="828" stroke="#b91c1c" stroke-width="2"/>
<line x1="584" y1="828" x2="596" y2="816" stroke="#b91c1c" stroke-width="2"/>
<text x="745" y="842" text-anchor="middle" font-size="12" fill="#991b1b">#2 DROP ACK conn=1015627259 seq=0 payload=&quot;&quot; (16B)</text>
<text x="30" y="889" font-size="12" fill="#64748b">1573.7ms</text>
<line x1="900" y1="884" x2="280" y2="884" stroke="#1d4ed8" stroke-width="2.2" marker-end="url(#arrowBlue)"/>
<text x="590" y="876" text-anchor="middle" font-size="12" fill="#0f172a">#3 DATA conn=1015627259 seq=0 payload=&quot;Received trace-2&quot; (32B)</text>
<text x="30" y="951" font-size="12" fill="#64748b">1574.5ms</text>
<line x1="280" y1="946" x2="900" y2="946" stroke="#059669" stroke-width="2.2" marker-end="url(#arrowGreen)"/>
<text x="590" y="938" text-anchor="middle" font-size="12" fill="#0f172a">#4 ACK conn=1015627259 seq=0 payload=&quot;&quot; (16B)</text>
<text x="30" y="1041" font-size="12" fill="#64748b">2219.1ms</text>
<line x1="280" y1="1036" x2="900" y2="1036" stroke="#1d4ed8" stroke-width="2.2" marker-end="url(#arrowBlue)"/>
<text x="590" y="1028" text-anchor="middle" font-size="12" fill="#0f172a">#1 DATA conn=-739157799 seq=0 payload=&quot;trace-3&quot; (23B)</text>
<text x="30" y="1103" font-size="12" fill="#64748b">2219.4ms</text>
<line x1="900" y1="1098" x2="280" y2="1098" stroke="#059669" stroke-width="2.2" marker-end="url(#arrowGreen)"/>
<text x="590" y="1090" text-anchor="middle" font-size="12" fill="#0f172a">#2 ACK conn=-739157799 seq=0 payload=&quot;&quot; (16B)</text>
<text x="30" y="1165" font-size="12" fill="#64748b">2219.6ms</text>
<line x1="900" y1="1160" x2="280" y2="1160" stroke="#1d4ed8" stroke-width="2.2" marker-end="url(#arrowBlue)"/>
<text x="590" y="1152" text-anchor="middle" font-size="12" fill="#0f172a">#3 DATA conn=-739157799 seq=0 payload=&quot;Received trace-3&quot; (32B)</text>
<text x="30" y="1227" font-size="12" fill="#64748b">2222.9ms</text>
<line x1="280" y1="1222" x2="590" y2="1222" stroke="#dc2626" stroke-width="2.2" marker-end="url(#arrowRed)"/>
<line x1="584" y1="1216" x2="596" y2="1228" stroke="#b91c1c" stroke-width="2"/>
<line x1="584" y1="1228" x2="596" y2="1216" stroke="#b91c1c" stroke-width="2"/>
<text x="435" y="1242" text-anchor="middle" font-size="12" fill="#991b1b">#4 DROP ACK conn=-739157799 seq=0 payload=&quot;&quot; (16B)</text>
<text x="30" y="1289" font-size="12" fill="#64748b">2331.0ms</text>
<line x1="900" y1="1284" x2="280" y2="1284" stroke="#1d4ed8" stroke-width="2.2" marker-end="url(#arrowBlue)"/>
<text x="590" y="1276" text-anchor="middle" font-size="12" fill="#0f172a">#5 DATA conn=-739157799 seq=0 payload=&quot;Received trace-3&quot; (32B)</text>
<text x="30" y="1351" font-size="12" fill="#64748b">2583.7ms</text>
<line x1="900" y1="1346" x2="280" y2="1346" stroke="#1d4ed8" stroke-width="2.2" marker-end="url(#arrowBlue)"/>
<text x="590" y="1338" text-anchor="middle" font-size="12" fill="#0f172a">#6 DATA conn=-739157799 seq=0 payload=&quot;Received trace-3&quot; (32B)</text>
<text x="30" y="1441" font-size="12" fill="#64748b">2865.9ms</text>
<line x1="280" y1="1436" x2="900" y2="1436" stroke="#1d4ed8" stroke-width="2.2" marker-end="url(#arrowBlue)"/>
<text x="590" y="1428" text-anchor="middle" font-size="12" fill="#0f172a">#1 DATA conn=-122970930 seq=0 payload=&quot;trace-4&quot; (23B)</text>
<text x="30" y="1503" font-size="12" fill="#64748b">2866.1ms</text>
<line x1="900" y1="1498" x2="280" y2="1498" stroke="#059669" stroke-width="2.2" marker-end="url(#arrowGreen)"/>
<text x="590" y="1490" text-anchor="middle" font-size="12" fill="#0f172a">#2 ACK conn=-122970930 seq=0 payload=&quot;&quot; (16B)</text>
<text x="30" y="1565" font-size="12" fill="#64748b">2866.4ms</text>
<line x1="900" y1="1560" x2="590" y2="1560" stroke="#dc2626" stroke-width="2.2" marker-end="url(#arrowRed)"/>
<line x1="584" y1="1554" x2="596" y2="1566" stroke="#b91c1c" stroke-width="2"/>
<line x1="584" y1="1566" x2="596" y2="1554" stroke="#b91c1c" stroke-width="2"/>
<text x="745" y="1580" text-anchor="middle" font-size="12" fill="#991b1b">#3 DROP DATA conn=-122970930 seq=0 payload=&quot;Received trace-4&quot; (32B)</text>
<text x="30" y="1627" font-size="12" fill="#64748b">2974.7ms</text>
<line x1="900" y1="1622" x2="280" y2="1622" stroke="#1d4ed8" stroke-width="2.2" marker-end="url(#arrowBlue)"/>
<text x="590" y="1614" text-anchor="middle" font-size="12" fill="#0f172a">#4 DATA conn=-122970930 seq=0 payload=&quot;Received trace-4&quot; (32B)</text>
<text x="30" y="1689" font-size="12" fill="#64748b">2974.9ms</text>
<line x1="280" y1="1684" x2="900" y2="1684" stroke="#059669" stroke-width="2.2" marker-end="url(#arrowGreen)"/>
<text x="590" y="1676" text-anchor="middle" font-size="12" fill="#0f172a">#5 ACK conn=-122970930 seq=0 payload=&quot;&quot; (16B)</text>
<text x="30" y="1779" font-size="12" fill="#64748b">3006.5ms</text>
<line x1="900" y1="1774" x2="280" y2="1774" stroke="#1d4ed8" stroke-width="2.2" marker-end="url(#arrowBlue)"/>
<text x="590" y="1766" text-anchor="middle" font-size="12" fill="#0f172a">#1 DATA conn=-739157799 seq=0 payload=&quot;Received trace-3&quot; (32B)</text>
<text x="30" y="1869" font-size="12" fill="#64748b">3623.4ms</text>
<line x1="280" y1="1864" x2="900" y2="1864" stroke="#1d4ed8" stroke-width="2.2" marker-end="url(#arrowBlue)"/>
<text x="590" y="1856" text-anchor="middle" font-size="12" fill="#0f172a">#1 DATA conn=1110362843 seq=0 payload=&quot;trace-5&quot; (23B)</text>
<text x="30" y="1931" font-size="12" fill="#64748b">3623.6ms</text>
<line x1="900" y1="1926" x2="280" y2="1926" stroke="#059669" stroke-width="2.2" marker-end="url(#arrowGreen)"/>
<text x="590" y="1918" text-anchor="middle" font-size="12" fill="#0f172a">#2 ACK conn=1110362843 seq=0 payload=&quot;&quot; (16B)</text>
<text x="30" y="1993" font-size="12" fill="#64748b">3623.9ms</text>
<line x1="900" y1="1988" x2="280" y2="1988" stroke="#1d4ed8" stroke-width="2.2" marker-end="url(#arrowBlue)"/>
<text x="590" y="1980" text-anchor="middle" font-size="12" fill="#0f172a">#3 DATA conn=1110362843 seq=0 payload=&quot;Received trace-5&quot; (32B)</text>
<text x="30" y="2055" font-size="12" fill="#64748b">3627.5ms</text>
<line x1="280" y1="2050" x2="900" y2="2050" stroke="#059669" stroke-width="2.2" marker-end="url(#arrowGreen)"/>
<text x="590" y="2042" text-anchor="middle" font-size="12" fill="#0f172a">#4 ACK conn=1110362843 seq=0 payload=&quot;&quot; (16B)</text>
<text x="30" y="2145" font-size="12" fill="#64748b">3655.8ms</text>
<line x1="900" y1="2140" x2="280" y2="2140" stroke="#1d4ed8" stroke-width="2.2" marker-end="url(#arrowBlue)"/>
<text x="590" y="2132" text-anchor="middle" font-size="12" fill="#0f172a">#1 DATA conn=-739157799 seq=0 payload=&quot;Received trace-3&quot; (32B)</text>
<text x="30" y="2235" font-size="12" fill="#64748b">4268.0ms</text>
<line x1="280" y1="2230" x2="900" y2="2230" stroke="#1d4ed8" stroke-width="2.2" marker-end="url(#arrowBlue)"/>
<text x="590" y="2222" text-anchor="middle" font-size="12" fill="#0f172a">#1 DATA conn=906299853 seq=0 payload=&quot;trace-6&quot; (23B)</text>
<text x="30" y="2297" font-size="12" fill="#64748b">4268.3ms</text>
<line x1="900" y1="2292" x2="280" y2="2292" stroke="#059669" stroke-width="2.2" marker-end="url(#arrowGreen)"/>
<text x="590" y="2284" text-anchor="middle" font-size="12" fill="#0f172a">#2 ACK conn=906299853 seq=0 payload=&quot;&quot; (16B)</text>
<text x="30" y="2359" font-size="12" fill="#64748b">4268.5ms</text>
<line x1="900" y1="2354" x2="280" y2="2354" stroke="#1d4ed8" stroke-width="2.2" marker-end="url(#arrowBlue)"/>
<text x="590" y="2346" text-anchor="middle" font-size="12" fill="#0f172a">#3 DATA conn=906299853 seq=0 payload=&quot;Received trace-6&quot; (32B)</text>
<text x="30" y="2421" font-size="12" fill="#64748b">4271.6ms</text>
<line x1="280" y1="2416" x2="900" y2="2416" stroke="#059669" stroke-width="2.2" marker-end="url(#arrowGreen)"/>
<text x="590" y="2408" text-anchor="middle" font-size="12" fill="#0f172a">#4 ACK conn=906299853 seq=0 payload=&quot;&quot; (16B)</text>
<text x="30" y="2511" font-size="12" fill="#64748b">4916.3ms</text>
<line x1="280" y1="2506" x2="900" y2="2506" stroke="#1d4ed8" stroke-width="2.2" marker-end="url(#arrowBlue)"/>
<text x="590" y="2498" text-anchor="middle" font-size="12" fill="#0f172a">#1 DATA conn=-1190347542 seq=0 payload=&quot;trace-7&quot; (23B)</text>
<text x="30" y="2573" font-size="12" fill="#64748b">4916.5ms</text>
<line x1="900" y1="2568" x2="280" y2="2568" stroke="#059669" stroke-width="2.2" marker-end="url(#arrowGreen)"/>
<text x="590" y="2560" text-anchor="middle" font-size="12" fill="#0f172a">#2 ACK conn=-1190347542 seq=0 payload=&quot;&quot; (16B)</text>
<text x="30" y="2635" font-size="12" fill="#64748b">4916.8ms</text>
<line x1="900" y1="2630" x2="280" y2="2630" stroke="#1d4ed8" stroke-width="2.2" marker-end="url(#arrowBlue)"/>
<text x="590" y="2622" text-anchor="middle" font-size="12" fill="#0f172a">#3 DATA conn=-1190347542 seq=0 payload=&quot;Received trace-7&quot; (32B)</text>
<text x="30" y="2697" font-size="12" fill="#64748b">4920.3ms</text>
<line x1="280" y1="2692" x2="900" y2="2692" stroke="#059669" stroke-width="2.2" marker-end="url(#arrowGreen)"/>
<text x="590" y="2684" text-anchor="middle" font-size="12" fill="#0f172a">#4 ACK conn=-1190347542 seq=0 payload=&quot;&quot; (16B)</text>
<text x="30" y="2787" font-size="12" fill="#64748b">5123.6ms</text>
<line x1="900" y1="2782" x2="280" y2="2782" stroke="#1d4ed8" stroke-width="2.2" marker-end="url(#arrowBlue)"/>
<text x="590" y="2774" text-anchor="middle" font-size="12" fill="#0f172a">#1 DATA conn=-739157799 seq=0 payload=&quot;Received trace-3&quot; (32B)</text>
</svg>