<?xml version="1.0" encoding="UTF-8"?>
<svg xmlns="http://www.w3.org/2000/svg" width="1180" height="6046" viewBox="0 0 1180 6046" font-family="Consolas, Menlo, monospace">
<defs>
<marker id="arrowBlue" markerWidth="10" markerHeight="8" refX="9" refY="4" orient="auto"><path d="M0,0 L10,4 L0,8 Z" fill="#1d4ed8"/></marker>
<marker id="arrowAmber" markerWidth="10" markerHeight="8" refX="9" refY="4" orient="auto"><path d="M0,0 L10,4 L0,8 Z" fill="#d97706"/></marker>
<marker id="arrowTeal" markerWidth="10" markerHeight="8" refX="9" refY="4" orient="auto"><path d="M0,0 L10,4 L0,8 Z" fill="#0f766e"/></marker>
<marker id="arrowGreen" markerWidth="10" markerHeight="8" refX="9" refY="4" orient="auto"><path d="M0,0 L10,4 L0,8 Z" fill="#059669"/></marker>
<marker id="arrowRed" markerWidth="10" markerHeight="8" refX="9" refY="4" orient="auto"><path d="M0,0 L10,4 L0,8 Z" fill="#dc2626"/></marker>
</defs>
<rect x="0" y="0" width="100%" height="100%" fill="#ffffff"/>
<text x="30" y="38" font-size="22" fill="#0f172a" font-weight="700">Java UDP Trace via Proxy (8 connections, auto failure scenarios, server1)</text>
<text x="30" y="62" font-size="13" fill="#334155">Blue=DATA, Amber=SYN, Teal=FIN, Green=ACK, Red=errors/drops, Pale Amber=Connection Establishment Handshake, Pale Teal=Connection Termination Handshake</text>
<rect x="200" y="76" width="160" height="30" rx="6" fill="#e2e8f0" stroke="#94a3b8"/>
<text x="280" y="96" text-anchor="middle" font-size="13" fill="#0f172a">Client</text>
<line x1="280" y1="110" x2="280" y2="6022" stroke="#94a3b8" stroke-dasharray="6,6"/>
<rect x="510" y="76" width="160" height="30" rx="6" fill="#e2e8f0" stroke="#94a3b8"/>
<text x="590" y="96" text-anchor="middle" font-size="13" fill="#0f172a">Proxy</text>
<line x1="590" y1="110" x2="590" y2="6022" stroke="#94a3b8" stroke-dasharray="6,6"/>
<rect x="820" y="76" width="160" height="30" rx="6" fill="#e2e8f0" stroke="#94a3b8"/>
<text x="900" y="96" text-anchor="middle" font-size="13" fill="#0f172a">Server</text>
<line x1="900" y1="110" x2="900" y2="6022" stroke="#94a3b8" stroke-dasharray="6,6"/>
<rect x="120" y="124" width="1010" height="676" fill="#f8fafc" stroke="none"/>
<text x="130" y="138" font-size="12" fill="#334155">Connection 1 [no failure] (conn_id=0x2e801d8fbbbcc707)</text>
<rect x="120" y="822" width="1010" height="750" fill="#f1f5f9" stroke="none"/>
<text x="130" y="836" font-size="12" fill="#334155">Connection 2 [drop C->S #1] (conn_id=0xa099646db54c1e81)</text>
<line x1="120" y1="822" x2="1130" y2="822" stroke="#94a3b8" stroke-width="1.4"/>
<rect x="120" y="1594" width="1010" height="812" fill="#f8fafc" stroke="none"/>
<text x="130" y="1608" font-size="12" fill="#334155">Connection 3 [drop S->C #1] (conn_id=0x6d85be35869d8898)</text>
<line x1="120" y1="1594" x2="1130" y2="1594" stroke="#94a3b8" stroke-width="1.4"/>
<rect x="120" y="2428" width="1010" height="688" fill="#f1f5f9" stroke="none"/>
<text x="130" y="2442" font-size="12" fill="#334155">Connection 4 [drop C->S #2] (conn_id=0x35e082898f6b73e9)</text>
<line x1="120" y1="2428" x2="1130" y2="2428" stroke="#94a3b8" stroke-width="1.4"/>
<rect x="120" y="3138" width="1010" height="626" fill="#f8fafc" stroke="none"/>
<text x="130" y="3152" font-size="12" fill="#334155">Connection 5 [drop S->C #2] (conn_id=0x081b650ddd7cf446)</text>
<line x1="120" y1="3138" x2="1130" y2="3138" stroke="#94a3b8" stroke-width="1.4"/>
<rect x="120" y="3786" width="1010" height="750" fill="#f1f5f9" stroke="none"/>
<text x="130" y="3800" font-size="12" fill="#334155">Connection 6 [drop C->S #3] (conn_id=0xc3358c929f3ed878)</text>
<line x1="120" y1="3786" x2="1130" y2="3786" stroke="#94a3b8" stroke-width="1.4"/>
<rect x="120" y="4558" width="1010" height="750" fill="#f8fafc" stroke="none"/>
<text x="130" y="4572" font-size="12" fill="#334155">Connection 7 [drop S->C #3] (conn_id=0x797230f5200d028a)</text>
<line x1="120" y1="4558" x2="1130" y2="4558" stroke="#94a3b8" stroke-width="1.4"/>
<rect x="120" y="5330" width="1010" height="626" fill="#f1f5f9" stroke="none"/>
<text x="130" y="5344" font-size="12" fill="#334155">Connection 8 [drop C->S #4] (conn_id=0x87ab6ec61511af3d)</text>
<line x1="120" y1="5330" x2="1130" y2="5330" stroke="#94a3b8" stroke-width="1.4"/>
<rect x="185" y="126" width="925" height="172" rx="6" fill="#fef3c7" fill-opacity="0.62" stroke="#d97706" stroke-width="1.2"/>
<text x="196" y="140" font-size="11" fill="#d97706">Connection Establishment Handshake</text>
<rect x="185" y="552" width="925" height="242" rx="6" fill="#ccfbf1" fill-opacity="0.62" stroke="#0f766e" stroke-width="1.2"/>
<text x="196" y="566" font-size="11" fill="#0f766e">Connection Termination Handshake</text>
<rect x="185" y="828" width="925" height="242" rx="6" fill="#fef3c7" fill-opacity="0.62" stroke="#d97706" stroke-width="1.2"/>
<text x="196" y="842" font-size="11" fill="#d97706">Connection Establishment Handshake</text>
<rect x="185" y="1324" width="925" height="242" rx="6" fill="#ccfbf1" fill-opacity="0.62" stroke="#0f766e" stroke-width="1.2"/>
<text x="196" y="1338" font-size="11" fill="#0f766e">Connection Termination Handshake</text>
<rect x="185" y="1600" width="925" height="304" rx="6" fill="#fef3c7" fill-opacity="0.62" stroke="#d97706" stroke-width="1.2"/>
<text x="196" y="1614" font-size="11" fill="#d97706">Connection Establishment Handshake</text>
<rect x="185" y="2158" width="925" height="242" rx="6" fill="#ccfbf1" fill-opacity="0.62" stroke="#0f766e" stroke-width="1.2"/>
<text x="196" y="2172" font-size="11" fill="#0f766e">Connection Termination Handshake</text>
<rect x="185" y="2434" width="925" height="180" rx="6" fill="#fef3c7" fill-opacity="0.62" stroke="#d97706" stroke-width="1.2"/>
<text x="196" y="2448" font-size="11" fill="#d97706">Connection Establishment Handshake</text>
<rect x="185" y="2868" width="925" height="242" rx="6" fill="#ccfbf1" fill-opacity="0.62" stroke="#0f766e" stroke-width="1.2"/>
<text x="196" y="2882" font-size="11" fill="#0f766e">Connection Termination Handshake</text>
<rect x="185" y="3144" width="925" height="180" rx="6" fill="#fef3c7" fill-opacity="0.62" stroke="#d97706" stroke-width="1.2"/>
<text x="196" y="3158" font-size="11" fill="#d97706">Connection Establishment Handshake</text>
<rect x="185" y="3578" width="925" height="180" rx="6" fill="#ccfbf1" fill-opacity="0.62" stroke="#0f766e" stroke-width="1.2"/>
<text x="196" y="3592" font-size="11" fill="#0f766e">Connection Termination Handshake</text>
<rect x="185" y="3792" width="925" height="180" rx="6" fill="#fef3c7" fill-opacity="0.62" stroke="#d97706" stroke-width="1.2"/>
<text x="196" y="3806" font-size="11" fill="#d97706">Connection Establishment Handshake</text>
<rect x="185" y="4288" width="925" height="242" rx="6" fill="#ccfbf1" fill-opacity="0.62" stroke="#0f766e" stroke-width="1.2"/>
<text x="196" y="4302" font-size="11" fill="#0f766e">Connection Termination Handshake</text>
<rect x="185" y="4564" width="925" height="180" rx="6" fill="#fef3c7" fill-opacity="0.62" stroke="#d97706" stroke-width="1.2"/>
<text x="196" y="4578" font-size="11" fill="#d97706">Connection Establishment Handshake</text>
<rect x="185" y="5060" width="925" height="242" rx="6" fill="#ccfbf1" fill-opacity="0.62" stroke="#0f766e" stroke-width="1.2"/>
<text x="196" y="5074" font-size="11" fill="#0f766e">Connection Termination Handshake</text>
<rect x="185" y="5336" width="925" height="180" rx="6" fill="#fef3c7" fill-opacity="0.62" stroke="#d97706" stroke-width="1.2"/>
<text x="196" y="5350" font-size="11" fill="#d97706">Connection Establishment Handshake</text>
<rect x="185" y="5770" width="925" height="180" rx="6" fill="#ccfbf1" fill-opacity="0.62" stroke="#0f766e" stroke-width="1.2"/>
<text x="196" y="5784" font-size="11" fill="#0f766e">Connection Termination Handshake</text>
<text x="30" y="151" font-size="12" fill="#64748b">148.2ms</text>
<line x1="280" y1="146" x2="900" y2="146" stroke="#d97706" stroke-width="2.2" marker-end="url(#arrowAmber)"/>
<text x="590" y="138" text-anchor="middle" font-size="12" fill="#0f172a">#1 SYN conn=0x2e801d8fbbbcc707 seq=0 payload=&quot;&quot; (14B)</text>
<text x="30" y="213" font-size="12" fill="#64748b">164.7ms</text>
<line x1="900" y1="208" x2="280" y2="208" stroke="#d97706" stroke-width="2.2" marker-end="url(#arrowAmber)"/>
<text x="590" y="200" text-anchor="middle" font-size="12" fill="#0f172a">#2 ACK|SYN conn=0x2e801d8fbbbcc707 seq=0 payload=&quot;ack_of=&lt;missing&gt;&quot; (14B)</text>
<text x="30" y="275" font-size="12" fill="#64748b">171.1ms</text>
<line x1="280" y1="270" x2="900" y2="270" stroke="#059669" stroke-width="2.2" marker-end="url(#arrowGreen)"/>
<text x="590" y="262" text-anchor="middle" font-size="12" fill="#0f172a">#3 ACK conn=0x2e801d8fbbbcc707 seq=0 payload=&quot;ack_of=SYN&quot; (15B)</text>
<text x="30" y="337" font-size="12" fill="#64748b">171.2ms</text>
<line x1="280" y1="332" x2="900" y2="332" stroke="#1d4ed8" stroke-width="2.2" marker-end="url(#arrowBlue)"/>
<text x="590" y="324" text-anchor="middle" font-size="12" fill="#0f172a">#4 DATA conn=0x2e801d8fbbbcc707 seq=1 payload=&quot;trace-0&quot; (21B)</text>
<text x="30" y="399" font-size="12" fill="#64748b">174.3ms</text>
<line x1="900" y1="394" x2="280" y2="394" stroke="#059669" stroke-width="2.2" marker-end="url(#arrowGreen)"/>
<text x="590" y="386" text-anchor="middle" font-size="12" fill="#0f172a">#5 ACK conn=0x2e801d8fbbbcc707 seq=1 payload=&quot;ack_of=DATA&quot; (15B)</text>
<text x="30" y="461" font-size="12" fill="#64748b">174.9ms</text>
<line x1="900" y1="456" x2="280" y2="456" stroke="#1d4ed8" stroke-width="2.2" marker-end="url(#arrowBlue)"/>
<text x="590" y="448" text-anchor="middle" font-size="12" fill="#0f172a">#6 DATA conn=0x2e801d8fbbbcc707 seq=1 payload=&quot;Received trace-0&quot; (30B)</text>
<text x="30" y="523" font-size="12" fill="#64748b">175.1ms</text>
<line x1="280" y1="518" x2="900" y2="518" stroke="#059669" stroke-width="2.2" marker-end="url(#arrowGreen)"/>
<text x="590" y="510" text-anchor="middle" font-size="12" fill="#0f172a">#7 ACK conn=0x2e801d8fbbbcc707 seq=1 payload=&quot;ack_of=DATA&quot; (15B)</text>
<text x="30" y="585" font-size="12" fill="#64748b">175.3ms</text>
<line x1="280" y1="580" x2="900" y2="580" stroke="#0f766e" stroke-width="2.2" marker-end="url(#arrowTeal)"/>
<text x="590" y="572" text-anchor="middle" font-size="12" fill="#0f172a">#8 FIN conn=0x2e801d8fbbbcc707 seq=2 payload=&quot;&quot; (14B)</text>
<text x="30" y="647" font-size="12" fill="#64748b">175.3ms</text>
<line x1="900" y1="642" x2="280" y2="642" stroke="#0f766e" stroke-width="2.2" marker-end="url(#arrowTeal)"/>
<text x="590" y="634" text-anchor="middle" font-size="12" fill="#0f172a">#9 FIN conn=0x2e801d8fbbbcc707 seq=2 payload=&quot;&quot; (14B)</text>
<text x="30" y="709" font-size="12" fill="#64748b">175.5ms</text>
<line x1="280" y1="704" x2="900" y2="704" stroke="#059669" stroke-width="2.2" marker-end="url(#arrowGreen)"/>
<text x="590" y="696" text-anchor="middle" font-size="12" fill="#0f172a">#10 ACK conn=0x2e801d8fbbbcc707 seq=2 payload=&quot;ack_of=FIN&quot; (15B)</text>
<text x="30" y="771" font-size="12" fill="#64748b">175.9ms</text>
<line x1="900" y1="766" x2="280" y2="766" stroke="#059669" stroke-width="2.2" marker-end="url(#arrowGreen)"/>
<text x="590" y="758" text-anchor="middle" font-size="12" fill="#0f172a">#11 ACK conn=0x2e801d8fbbbcc707 seq=2 payload=&quot;ack_of=FIN&quot; (15B)</text>
<text x="30" y="861" font-size="12" fill="#64748b">831.6ms</text>
<line x1="280" y1="856" x2="590" y2="856" stroke="#dc2626" stroke-width="2.2" marker-end="url(#arrowRed)"/>
<line x1="584" y1="850" x2="596" y2="862" stroke="#b91c1c" stroke-width="2"/>
<line x1="584" y1="862" x2="596" y2="850" stroke="#b91c1c" stroke-width="2"/>
<text x="435" y="876" text-anchor="middle" font-size="12" fill="#991b1b">#1 DROP SYN conn=0xa099646db54c1e81 seq=0 payload=&quot;&quot; (14B)</text>
<text x="30" y="923" font-size="12" fill="#64748b">905.3ms</text>
<line x1="280" y1="918" x2="900" y2="918" stroke="#d97706" stroke-width="2.2" marker-end="url(#arrowAmber)"/>
<text x="590" y="910" text-anchor="middle" font-size="12" fill="#0f172a">#2 SYN conn=0xa099646db54c1e81 seq=0 payload=&quot;&quot; (14B)</text>
<text x="30" y="985" font-size="12" fill="#64748b">905.7ms</text>
<line x1="900" y1="980" x2="280" y2="980" stroke="#d97706" stroke-width="2.2" marker-end="url(#arrowAmber)"/>
<text x="590" y="972" text-anchor="middle" font-size="12" fill="#0f172a">#3 ACK|SYN conn=0xa099646db54c1e81 seq=0 payload=&quot;ack_of=&lt;missing&gt;&quot; (14B)</text>
<text x="30" y="1047" font-size="12" fill="#64748b">911.6ms</text>
<line x1="280" y1="1042" x2="900" y2="1042" stroke="#059669" stroke-width="2.2" marker-end="url(#arrowGreen)"/>
<text x="590" y="1034" text-anchor="middle" font-size="12" fill="#0f172a">#4 ACK conn=0xa099646db54c1e81 seq=0 payload=&quot;ack_of=SYN&quot; (15B)</text>
<text x="30" y="1109" font-size="12" fill="#64748b">911.7ms</text>
<line x1="280" y1="1104" x2="900" y2="1104" stroke="#1d4ed8" stroke-width="2.2" marker-end="url(#arrowBlue)"/>
<text x="590" y="1096" text-anchor="middle" font-size="12" fill="#0f172a">#5 DATA conn=0xa099646db54c1e81 seq=1 payload=&quot;trace-1&quot; (21B)</text>
<text x="30" y="1171" font-size="12" fill="#64748b">911.8ms</text>
<line x1="900" y1="1166" x2="280" y2="1166" stroke="#059669" stroke-width="2.2" marker-end="url(#arrowGreen)"/>
<text x="590" y="1158" text-anchor="middle" font-size="12" fill="#0f172a">#6 ACK conn=0xa099646db54c1e81 seq=1 payload=&quot;ack_of=DATA&quot; (15B)</text>
<text x="30" y="1233" font-size="12" fill="#64748b">912.1ms</text>
<line x1="900" y1="1228" x2="280" y2="1228" stroke="#1d4ed8" stroke-width="2.2" marker-end="url(#arrowBlue)"/>
<text x="590" y="1220" text-anchor="middle" font-size="12" fill="#0f172a">#7 DATA conn=0xa099646db54c1e81 seq=1 payload=&quot;Received trace-1&quot; (30B)</text>
<text x="30" y="1295" font-size="12" fill="#64748b">912.3ms</text>
<line x1="280" y1="1290" x2="900" y2="1290" stroke="#059669" stroke-width="2.2" marker-end="url(#arrowGreen)"/>
<text x="590" y="1282" text-anchor="middle" font-size="12" fill="#0f172a">#8 ACK conn=0xa099646db54c1e81 seq=1 payload=&quot;ack_of=DATA&quot; (15B)</text>
<text x="30" y="1357" font-size="12" fill="#64748b">912.5ms</text>
<line x1="280" y1="1352" x2="900" y2="1352" stroke="#0f766e" stroke-width="2.2" marker-end="url(#arrowTeal)"/>
<text x="590" y="1344" text-anchor="middle" font-size="12" fill="#0f172a">#9 FIN conn=0xa099646db54c1e81 seq=2 payload=&quot;&quot; (14B)</text>
<text x="30" y="1419" font-size="12" fill="#64748b">912.5ms</text>
<line x1="900" y1="1414" x2="280" y2="1414" stroke="#0f766e" stroke-width="2.2" marker-end="url(#arrowTeal)"/>
<text x="590" y="1406" text-anchor="middle" font-size="12" fill="#0f172a">#10 FIN conn=0xa099646db54c1e81 seq=2 payload=&quot;&quot; (14B)</text>
<text x="30" y="1481" font-size="12" fill="#64748b">912.6ms</text>
<line x1="900" y1="1476" x2="280" y2="1476" stroke="#059669" stroke-width="2.2" marker-end="url(#arrowGreen)"/>
<text x="590" y="1468" text-anchor="middle" font-size="12" fill="#0f172a">#11 ACK conn=0xa099646db54c1e81 seq=2 payload=&quot;ack_of=FIN&quot; (15B)</text>
<text x="30" y="1543" font-size="12" fill="#64748b">912.7ms</text>
<line x1="280" y1="1538" x2="900" y2="1538" stroke="#059669" stroke-width="2.2" marker-end="url(#arrowGreen)"/>
<text x="590" y="1530" text-anchor="middle" font-size="12" fill="#0f172a">#12 ACK conn=0xa099646db54c1e81 seq=2 payload=&quot;ack_of=FIN&quot; (15B)</text>
<text x="30" y="1633" font-size="12" fill="#64748b">1572.5ms</text>
<line x1="280" y1="1628" x2="900" y2="1628" stroke="#d97706" stroke-width="2.2" marker-end="url(#arrowAmber)"/>
<text x="590" y="1620" text-anchor="middle" font-size="12" fill="#0f172a">#1 SYN conn=0x6d85be35869d8898 seq=0 payload=&quot;&quot; (14B)</text>
<text x="30" y="1695" font-size="12" fill="#64748b">1573.0ms</text>
<line x1="900" y1="1690" x2="590" y2="1690" stroke="#dc2626" stroke-width="2.2" marker-end="url(#arrowRed)"/>
<line x1="584" y1="1684" x2="596" y2="1696" stroke="#b91c1c" stroke-width="2"/>
<line x1="584" y1="1696" x2="596" y2="1684" stroke="#b91c1c" stroke-width="2"/>
<text x="745" y="1710" text-anchor="middle" font-size="12" fill="#991b1b">#2 DROP ACK|SYN conn=0x6d85be35869d8898 seq=0 payload=&quot;ack_of=&lt;missing&gt;&quot; (14B)</text>
<text x="30" y="1757" font-size="12" fill="#64748b">1641.9ms</text>
<line x1="280" y1="1752" x2="900" y2="1752" stroke="#d97706" stroke-width="2.2" marker-end="url(#arrowAmber)"/>
<text x="590" y="1744" text-anchor="middle" font-size="12" fill="#0f172a">#3 SYN conn=0x6d85be35869d8898 seq=0 payload=&quot;&quot; (14B)</text>
<text x="30" y="1819" font-size="12" fill="#64748b">1642.5ms</text>
<line x1="900" y1="1814" x2="280" y2="1814" stroke="#d97706" stroke-width="2.2" marker-end="url(#arrowAmber)"/>
<text x="590" y="1806" text-anchor="middle" font-size="12" fill="#0f172a">#4 ACK|SYN conn=0x6d85be35869d8898 seq=0 payload=&quot;ack_of=&lt;missing&gt;&quot; (14B)</text>
<text x="30" y="1881" font-size="12" fill="#64748b">1648.7ms</text>
<line x1="280" y1="1876" x2="900" y2="1876" stroke="#059669" stroke-width="2.2" marker-end="url(#arrowGreen)"/>
<text x="590" y="1868" text-anchor="middle" font-size="12" fill="#0f172a">#5 ACK conn=0x6d85be35869d8898 seq=0 payload=&quot;ack_of=SYN&quot; (15B)</text>
<text x="30" y="1943" font-size="12" fill="#64748b">1648.8ms</text>
<line x1="280" y1="1938" x2="900" y2="1938" stroke="#1d4ed8" stroke-width="2.2" marker-end="url(#arrowBlue)"/>
<text x="590" y="1930" text-anchor="middle" font-size="12" fill="#0f172a">#6 DATA conn=0x6d85be35869d8898 seq=1 payload=&quot;trace-2&quot; (21B)</text>
<text x="30" y="2005" font-size="12" fill="#64748b">1648.9ms</text>
<line x1="900" y1="2000" x2="280" y2="2000" stroke="#059669" stroke-width="2.2" marker-end="url(#arrowGreen)"/>
<text x="590" y="1992" text-anchor="middle" font-size="12" fill="#0f172a">#7 ACK conn=0x6d85be35869d8898 seq=1 payload=&quot;ack_of=DATA&quot; (15B)</text>
<text x="30" y="2067" font-size="12" fill="#64748b">1649.2ms</text>
<line x1="900" y1="2062" x2="280" y2="2062" stroke="#1d4ed8" stroke-width="2.2" marker-end="url(#arrowBlue)"/>
<text x="590" y="2054" text-anchor="middle" font-size="12" fill="#0f172a">#8 DATA conn=0x6d85be35869d8898 seq=1 payload=&quot;Received trace-2&quot; (30B)</text>
<text x="30" y="2129" font-size="12" fill="#64748b">1649.3ms</text>
<line x1="280" y1="2124" x2="900" y2="2124" stroke="#059669" stroke-width="2.2" marker-end="url(#arrowGreen)"/>
<text x="590" y="2116" text-anchor="middle" font-size="12" fill="#0f172a">#9 ACK conn=0x6d85be35869d8898 seq=1 payload=&quot;ack_of=DATA&quot; (15B)</text>
<text x="30" y="2191" font-size="12" fill="#64748b">1649.7ms</text>
<line x1="900" y1="2186" x2="280" y2="2186" stroke="#0f766e" stroke-width="2.2" marker-end="url(#arrowTeal)"/>
<text x="590" y="2178" text-anchor="middle" font-size="12" fill="#0f172a">#10 FIN conn=0x6d85be35869d8898 seq=2 payload=&quot;&quot; (14B)</text>
<text x="30" y="2253" font-size="12" fill="#64748b">1649.7ms</text>
<line x1="280" y1="2248" x2="900" y2="2248" stroke="#0f766e" stroke-width="2.2" marker-end="url(#arrowTeal)"/>
<text x="590" y="2240" text-anchor="middle" font-size="12" fill="#0f172a">#11 FIN conn=0x6d85be35869d8898 seq=2 payload=&quot;&quot; (14B)</text>
<text x="30" y="2315" font-size="12" fill="#64748b">1649.9ms</text>
<line x1="280" y1="2310" x2="900" y2="2310" stroke="#059669" stroke-width="2.2" marker-end="url(#arrowGreen)"/>
<text x="590" y="2302" text-anchor="middle" font-size="12" fill="#0f172a">#12 ACK conn=0x6d85be35869d8898 seq=2 payload=&quot;ack_of=FIN&quot; (15B)</text>
<text x="30" y="2377" font-size="12" fill="#64748b">1649.9ms</text>
<line x1="900" y1="2372" x2="280" y2="2372" stroke="#059669" stroke-width="2.2" marker-end="url(#arrowGreen)"/>
<text x="590" y="2364" text-anchor="middle" font-size="12" fill="#0f172a">#13 ACK conn=0x6d85be35869d8898 seq=2 payload=&quot;ack_of=FIN&quot; (15B)</text>
<text x="30" y="2467" font-size="12" fill="#64748b">2299.2ms</text>
<line x1="280" y1="2462" x2="900" y2="2462" stroke="#d97706" stroke-width="2.2" marker-end="url(#arrowAmber)"/>
<text x="590" y="2454" text-anchor="middle" font-size="12" fill="#0f172a">#1 SYN conn=0x35e082898f6b73e9 seq=0 payload=&quot;&quot; (14B)</text>
<text x="30" y="2529" font-size="12" fill="#64748b">2299.6ms</text>
<line x1="900" y1="2524" x2="280" y2="2524" stroke="#d97706" stroke-width="2.2" marker-end="url(#arrowAmber)"/>
<text x="590" y="2516" text-anchor="middle" font-size="12" fill="#0f172a">#2 ACK|SYN conn=0x35e082898f6b73e9 seq=0 payload=&quot;ack_of=&lt;missing&gt;&quot; (14B)</text>
<text x="30" y="2591" font-size="12" fill="#64748b">2305.1ms</text>
<line x1="280" y1="2586" x2="590" y2="2586" stroke="#dc2626" stroke-width="2.2" marker-end="url(#arrowRed)"/>
<line x1="584" y1="2580" x2="596" y2="2592" stroke="#b91c1c" stroke-width="2"/>
<line x1="584" y1="2592" x2="596" y2="2580" stroke="#b91c1c" stroke-width="2"/>
<text x="435" y="2606" text-anchor="middle" font-size="12" fill="#991b1b">#3 DROP ACK conn=0x35e082898f6b73e9 seq=0 payload=&quot;ack_of=SYN&quot; (15B)</text>
<text x="30" y="2653" font-size="12" fill="#64748b">2305.2ms</text>
<line x1="280" y1="2648" x2="900" y2="2648" stroke="#1d4ed8" stroke-width="2.2" marker-end="url(#arrowBlue)"/>
<text x="590" y="2640" text-anchor="middle" font-size="12" fill="#0f172a">#4 DATA conn=0x35e082898f6b73e9 seq=1 payload=&quot;trace-3&quot; (21B)</text>
<text x="30" y="2715" font-size="12" fill="#64748b">2305.4ms</text>
<line x1="900" y1="2710" x2="280" y2="2710" stroke="#059669" stroke-width="2.2" marker-end="url(#arrowGreen)"/>
<text x="590" y="2702" text-anchor="middle" font-size="12" fill="#0f172a">#5 ACK conn=0x35e082898f6b73e9 seq=1 payload=&quot;ack_of=DATA&quot; (15B)</text>
<text x="30" y="2777" font-size="12" fill="#64748b">2305.6ms</text>
<line x1="900" y1="2772" x2="280" y2="2772" stroke="#1d4ed8" stroke-width="2.2" marker-end="url(#arrowBlue)"/>
<text x="590" y="2764" text-anchor="middle" font-size="12" fill="#0f172a">#6 DATA conn=0x35e082898f6b73e9 seq=1 payload=&quot;Received trace-3&quot; (30B)</text>
<text x="30" y="2839" font-size="12" fill="#64748b">2305.7ms</text>
<line x1="280" y1="2834" x2="900" y2="2834" stroke="#059669" stroke-width="2.2" marker-end="url(#arrowGreen)"/>
<text x="590" y="2826" text-anchor="middle" font-size="12" fill="#0f172a">#7 ACK conn=0x35e082898f6b73e9 seq=1 payload=&quot;ack_of=DATA&quot; (15B)</text>
<text x="30" y="2901" font-size="12" fill="#64748b">2305.9ms</text>
<line x1="280" y1="2896" x2="900" y2="2896" stroke="#0f766e" stroke-width="2.2" marker-end="url(#arrowTeal)"/>
<text x="590" y="2888" text-anchor="middle" font-size="12" fill="#0f172a">#8 FIN conn=0x35e082898f6b73e9 seq=2 payload=&quot;&quot; (14B)</text>
<text x="30" y="2963" font-size="12" fill="#64748b">2305.9ms</text>
<line x1="900" y1="2958" x2="280" y2="2958" stroke="#0f766e" stroke-width="2.2" marker-end="url(#arrowTeal)"/>
<text x="590" y="2950" text-anchor="middle" font-size="12" fill="#0f172a">#9 FIN conn=0x35e082898f6b73e9 seq=2 payload=&quot;&quot; (14B)</text>
<text x="30" y="3025" font-size="12" fill="#64748b">2306.1ms</text>
<line x1="900" y1="3020" x2="280" y2="3020" stroke="#059669" stroke-width="2.2" marker-end="url(#arrowGreen)"/>
<text x="590" y="3012" text-anchor="middle" font-size="12" fill="#0f172a">#10 ACK conn=0x35e082898f6b73e9 seq=2 payload=&quot;ack_of=FIN&quot; (15B)</text>
<text x="30" y="3087" font-size="12" fill="#64748b">2306.1ms</text>
<line x1="280" y1="3082" x2="900" y2="3082" stroke="#059669" stroke-width="2.2" marker-end="url(#arrowGreen)"/>
<text x="590" y="3074" text-anchor="middle" font-size="12" fill="#0f172a">#11 ACK conn=0x35e082898f6b73e9 seq=2 payload=&quot;ack_of=FIN&quot; (15B)</text>
<text x="30" y="3177" font-size="12" fill="#64748b">2959.1ms</text>
<line x1="280" y1="3172" x2="900" y2="3172" stroke="#d97706" stroke-width="2.2" marker-end="url(#arrowAmber)"/>
<text x="590" y="3164" text-anchor="middle" font-size="12" fill="#0f172a">#1 SYN conn=0x081b650ddd7cf446 seq=0 payload=&quot;&quot; (14B)</text>
<text x="30" y="3239" font-size="12" fill="#64748b">2959.5ms</text>
<line x1="900" y1="3234" x2="280" y2="3234" stroke="#d97706" stroke-width="2.2" marker-end="url(#arrowAmber)"/>
<text x="590" y="3226" text-anchor="middle" font-size="12" fill="#0f172a">#2 ACK|SYN conn=0x081b650ddd7cf446 seq=0 payload=&quot;ack_of=&lt;missing&gt;&quot; (14B)</text>
<text x="30" y="3301" font-size="12" fill="#64748b">2964.8ms</text>
<line x1="280" y1="3296" x2="900" y2="3296" stroke="#059669" stroke-width="2.2" marker-end="url(#arrowGreen)"/>
<text x="590" y="3288" text-anchor="middle" font-size="12" fill="#0f172a">#3 ACK conn=0x081b650ddd7cf446 seq=0 payload=&quot;ack_of=SYN&quot; (15B)</text>
<text x="30" y="3363" font-size="12" fill="#64748b">2964.9ms</text>
<line x1="280" y1="3358" x2="900" y2="3358" stroke="#1d4ed8" stroke-width="2.2" marker-end="url(#arrowBlue)"/>
<text x="590" y="3350" text-anchor="middle" font-size="12" fill="#0f172a">#4 DATA conn=0x081b650ddd7cf446 seq=1 payload=&quot;trace-4&quot; (21B)</text>
<text x="30" y="3425" font-size="12" fill="#64748b">2965.1ms</text>
<line x1="900" y1="3420" x2="590" y2="3420" stroke="#dc2626" stroke-width="2.2" marker-end="url(#arrowRed)"/>
<line x1="584" y1="3414" x2="596" y2="3426" stroke="#b91c1c" stroke-width="2"/>
<line x1="584" y1="3426" x2="596" y2="3414" stroke="#b91c1c" stroke-width="2"/>
<text x="745" y="3440" text-anchor="middle" font-size="12" fill="#991b1b">#5 DROP ACK conn=0x081b650ddd7cf446 seq=1 payload=&quot;ack_of=DATA&quot; (15B)</text>
<text x="30" y="3487" font-size="12" fill="#64748b">2965.3ms</text>
<line x1="900" y1="3482" x2="280" y2="3482" stroke="#1d4ed8" stroke-width="2.2" marker-end="url(#arrowBlue)"/>
<text x="590" y="3474" text-anchor="middle" font-size="12" fill="#0f172a">#6 DATA conn=0x081b650ddd7cf446 seq=1 payload=&quot;Received trace-4&quot; (30B)</text>
<text x="30" y="3549" font-size="12" fill="#64748b">2965.5ms</text>
<line x1="280" y1="3544" x2="900" y2="3544" stroke="#059669" stroke-width="2.2" marker-end="url(#arrowGreen)"/>
<text x="590" y="3536" text-anchor="middle" font-size="12" fill="#0f172a">#7 ACK conn=0x081b650ddd7cf446 seq=1 payload=&quot;ack_of=DATA&quot; (15B)</text>
<text x="30" y="3611" font-size="12" fill="#64748b">2965.7ms</text>
<line x1="900" y1="3606" x2="280" y2="3606" stroke="#0f766e" stroke-width="2.2" marker-end="url(#arrowTeal)"/>
<text x="590" y="3598" text-anchor="middle" font-size="12" fill="#0f172a">#8 FIN conn=0x081b650ddd7cf446 seq=2 payload=&quot;&quot; (14B)</text>
<text x="30" y="3673" font-size="12" fill="#64748b">2965.9ms</text>
<line x1="280" y1="3668" x2="900" y2="3668" stroke="#0f766e" stroke-width="2.2" marker-end="url(#arrowTeal)"/>
<text x="590" y="3660" text-anchor="middle" font-size="12" fill="#0f172a">#9 ACK|FIN conn=0x081b650ddd7cf446 seq=2 payload=&quot;ack_of=&lt;missing&gt;&quot; (14B)</text>
<text x="30" y="3735" font-size="12" fill="#64748b">2966.1ms</text>
<line x1="900" y1="3730" x2="280" y2="3730" stroke="#059669" stroke-width="2.2" marker-end="url(#arrowGreen)"/>
<text x="590" y="3722" text-anchor="middle" font-size="12" fill="#0f172a">#10 ACK conn=0x081b650ddd7cf446 seq=2 payload=&quot;ack_of=FIN&quot; (15B)</text>
<text x="30" y="3825" font-size="12" fill="#64748b">3618.9ms</text>
<line x1="280" y1="3820" x2="900" y2="3820" stroke="#d97706" stroke-width="2.2" marker-end="url(#arrowAmber)"/>
<text x="590" y="3812" text-anchor="middle" font-size="12" fill="#0f172a">#1 SYN conn=0xc3358c929f3ed878 seq=0 payload=&quot;&quot; (14B)</text>
<text x="30" y="3887" font-size="12" fill="#64748b">3619.3ms</text>
<line x1="900" y1="3882" x2="280" y2="3882" stroke="#d97706" stroke-width="2.2" marker-end="url(#arrowAmber)"/>
<text x="590" y="3874" text-anchor="middle" font-size="12" fill="#0f172a">#2 ACK|SYN conn=0xc3358c929f3ed878 seq=0 payload=&quot;ack_of=&lt;missing&gt;&quot; (14B)</text>
<text x="30" y="3949" font-size="12" fill="#64748b">3624.9ms</text>
<line x1="280" y1="3944" x2="900" y2="3944" stroke="#059669" stroke-width="2.2" marker-end="url(#arrowGreen)"/>
<text x="590" y="3936" text-anchor="middle" font-size="12" fill="#0f172a">#3 ACK conn=0xc3358c929f3ed878 seq=0 payload=&quot;ack_of=SYN&quot; (15B)</text>
<text x="30" y="4011" font-size="12" fill="#64748b">3625.0ms</text>
<line x1="280" y1="4006" x2="590" y2="4006" stroke="#dc2626" stroke-width="2.2" marker-end="url(#arrowRed)"/>
<line x1="584" y1="4000" x2="596" y2="4012" stroke="#b91c1c" stroke-width="2"/>
<line x1="584" y1="4012" x2="596" y2="4000" stroke="#b91c1c" stroke-width="2"/>
<text x="435" y="4026" text-anchor="middle" font-size="12" fill="#991b1b">#4 DROP DATA conn=0xc3358c929f3ed878 seq=1 payload=&quot;trace-5&quot; (21B)</text>
<text x="30" y="4073" font-size="12" fill="#64748b">3704.0ms</text>
<line x1="280" y1="4068" x2="900" y2="4068" stroke="#1d4ed8" stroke-width="2.2" marker-end="url(#arrowBlue)"/>
<text x="590" y="4060" text-anchor="middle" font-size="12" fill="#0f172a">#5 DATA conn=0xc3358c929f3ed878 seq=1 payload=&quot;trace-5&quot; (21B)</text>
<text x="30" y="4135" font-size="12" fill="#64748b">3704.3ms</text>
<line x1="900" y1="4130" x2="280" y2="4130" stroke="#059669" stroke-width="2.2" marker-end="url(#arrowGreen)"/>
<text x="590" y="4122" text-anchor="middle" font-size="12" fill="#0f172a">#6 ACK conn=0xc3358c929f3ed878 seq=1 payload=&quot;ack_of=DATA&quot; (15B)</text>
<text x="30" y="4197" font-size="12" fill="#64748b">3704.5ms</text>
<line x1="900" y1="4192" x2="280" y2="4192" stroke="#1d4ed8" stroke-width="2.2" marker-end="url(#arrowBlue)"/>
<text x="590" y="4184" text-anchor="middle" font-size="12" fill="#0f172a">#7 DATA conn=0xc3358c929f3ed878 seq=1 payload=&quot;Received trace-5&quot; (30B)</text>
<text x="30" y="4259" font-size="12" fill="#64748b">3704.7ms</text>
<line x1="280" y1="4254" x2="900" y2="4254" stroke="#059669" stroke-width="2.2" marker-end="url(#arrowGreen)"/>
<text x="590" y="4246" text-anchor="middle" font-size="12" fill="#0f172a">#8 ACK conn=0xc3358c929f3ed878 seq=1 payload=&quot;ack_of=DATA&quot; (15B)</text>
<text x="30" y="4321" font-size="12" fill="#64748b">3704.9ms</text>
<line x1="280" y1="4316" x2="900" y2="4316" stroke="#0f766e" stroke-width="2.2" marker-end="url(#arrowTeal)"/>
<text x="590" y="4308" text-anchor="middle" font-size="12" fill="#0f172a">#9 FIN conn=0xc3358c929f3ed878 seq=2 payload=&quot;&quot; (14B)</text>
<text x="30" y="4383" font-size="12" fill="#64748b">3704.9ms</text>
<line x1="900" y1="4378" x2="280" y2="4378" stroke="#0f766e" stroke-width="2.2" marker-end="url(#arrowTeal)"/>
<text x="590" y="4370" text-anchor="middle" font-size="12" fill="#0f172a">#10 FIN conn=0xc3358c929f3ed878 seq=2 payload=&quot;&quot; (14B)</text>
<text x="30" y="4445" font-size="12" fill="#64748b">3705.1ms</text>
<line x1="900" y1="4440" x2="280" y2="4440" stroke="#059669" stroke-width="2.2" marker-end="url(#arrowGreen)"/>
<text x="590" y="4432" text-anchor="middle" font-size="12" fill="#0f172a">#11 ACK conn=0xc3358c929f3ed878 seq=2 payload=&quot;ack_of=FIN&quot; (15B)</text>
<text x="30" y="4507" font-size="12" fill="#64748b">3705.2ms</text>
<line x1="280" y1="4502" x2="900" y2="4502" stroke="#059669" stroke-width="2.2" marker-end="url(#arrowGreen)"/>
<text x="590" y="4494" text-anchor="middle" font-size="12" fill="#0f172a">#12 ACK conn=0xc3358c929f3ed878 seq=2 payload=&quot;ack_of=FIN&quot; (15B)</text>
<text x="30" y="4597" font-size="12" fill="#64748b">4363.0ms</text>
<line x1="280" y1="4592" x2="900" y2="4592" stroke="#d97706" stroke-width="2.2" marker-end="url(#arrowAmber)"/>
<text x="590" y="4584" text-anchor="middle" font-size="12" fill="#0f172a">#1 SYN conn=0x797230f5200d028a seq=0 payload=&quot;&quot; (14B)</text>
<text x="30" y="4659" font-size="12" fill="#64748b">4363.4ms</text>
<line x1="900" y1="4654" x2="280" y2="4654" stroke="#d97706" stroke-width="2.2" marker-end="url(#arrowAmber)"/>
<text x="590" y="4646" text-anchor="middle" font-size="12" fill="#0f172a">#2 ACK|SYN conn=0x797230f5200d028a seq=0 payload=&quot;ack_of=&lt;missing&gt;&quot; (14B)</text>
<text x="30" y="4721" font-size="12" fill="#64748b">4368.9ms</text>
<line x1="280" y1="4716" x2="900" y2="4716" stroke="#059669" stroke-width="2.2" marker-end="url(#arrowGreen)"/>
<text x="590" y="4708" text-anchor="middle" font-size="12" fill="#0f172a">#3 ACK conn=0x797230f5200d028a seq=0 payload=&quot;ack_of=SYN&quot; (15B)</text>
<text x="30" y="4783" font-size="12" fill="#64748b">4369.0ms</text>
<line x1="280" y1="4778" x2="900" y2="4778" stroke="#1d4ed8" stroke-width="2.2" marker-end="url(#arrowBlue)"/>
<text x="590" y="4770" text-anchor="middle" font-size="12" fill="#0f172a">#4 DATA conn=0x797230f5200d028a seq=1 payload=&quot;trace-6&quot; (21B)</text>
<text x="30" y="4845" font-size="12" fill="#64748b">4369.1ms</text>
<line x1="900" y1="4840" x2="280" y2="4840" stroke="#059669" stroke-width="2.2" marker-end="url(#arrowGreen)"/>
<text x="590" y="4832" text-anchor="middle" font-size="12" fill="#0f172a">#5 ACK conn=0x797230f5200d028a seq=1 payload=&quot;ack_of=DATA&quot; (15B)</text>
<text x="30" y="4907" font-size="12" fill="#64748b">4369.3ms</text>
<line x1="900" y1="4902" x2="590" y2="4902" stroke="#dc2626" stroke-width="2.2" marker-end="url(#arrowRed)"/>
<line x1="584" y1="4896" x2="596" y2="4908" stroke="#b91c1c" stroke-width="2"/>
<line x1="584" y1="4908" x2="596" y2="4896" stroke="#b91c1c" stroke-width="2"/>
<text x="745" y="4922" text-anchor="middle" font-size="12" fill="#991b1b">#6 DROP DATA conn=0x797230f5200d028a seq=1 payload=&quot;Received trace-6&quot; (30B)</text>
<text x="30" y="4969" font-size="12" fill="#64748b">4436.1ms</text>
<line x1="900" y1="4964" x2="280" y2="4964" stroke="#1d4ed8" stroke-width="2.2" marker-end="url(#arrowBlue)"/>
<text x="590" y="4956" text-anchor="middle" font-size="12" fill="#0f172a">#7 DATA conn=0x797230f5200d028a seq=1 payload=&quot;Received trace-6&quot; (30B)</text>
<text x="30" y="5031" font-size="12" fill="#64748b">4436.3ms</text>
<line x1="280" y1="5026" x2="900" y2="5026" stroke="#059669" stroke-width="2.2" marker-end="url(#arrowGreen)"/>
<text x="590" y="5018" text-anchor="middle" font-size="12" fill="#0f172a">#8 ACK conn=0x797230f5200d028a seq=1 payload=&quot;ack_of=DATA&quot; (15B)</text>
<text x="30" y="5093" font-size="12" fill="#64748b">4436.6ms</text>
<line x1="280" y1="5088" x2="900" y2="5088" stroke="#0f766e" stroke-width="2.2" marker-end="url(#arrowTeal)"/>
<text x="590" y="5080" text-anchor="middle" font-size="12" fill="#0f172a">#9 FIN conn=0x797230f5200d028a seq=2 payload=&quot;&quot; (14B)</text>
<text x="30" y="5155" font-size="12" fill="#64748b">4436.6ms</text>
<line x1="900" y1="5150" x2="280" y2="5150" stroke="#0f766e" stroke-width="2.2" marker-end="url(#arrowTeal)"/>
<text x="590" y="5142" text-anchor="middle" font-size="12" fill="#0f172a">#10 FIN conn=0x797230f5200d028a seq=2 payload=&quot;&quot; (14B)</text>
<text x="30" y="5217" font-size="12" fill="#64748b">4436.8ms</text>
<line x1="900" y1="5212" x2="280" y2="5212" stroke="#059669" stroke-width="2.2" marker-end="url(#arrowGreen)"/>
<text x="590" y="5204" text-anchor="middle" font-size="12" fill="#0f172a">#11 ACK conn=0x797230f5200d028a seq=2 payload=&quot;ack_of=FIN&quot; (15B)</text>
<text x="30" y="5279" font-size="12" fill="#64748b">4436.8ms</text>
<line x1="280" y1="5274" x2="900" y2="5274" stroke="#059669" stroke-width="2.2" marker-end="url(#arrowGreen)"/>
<text x="590" y="5266" text-anchor="middle" font-size="12" fill="#0f172a">#12 ACK conn=0x797230f5200d028a seq=2 payload=&quot;ack_of=FIN&quot; (15B)</text>
<text x="30" y="5369" font-size="12" fill="#64748b">5090.8ms</text>
<line x1="280" y1="5364" x2="900" y2="5364" stroke="#d97706" stroke-width="2.2" marker-end="url(#arrowAmber)"/>
<text x="590" y="5356" text-anchor="middle" font-size="12" fill="#0f172a">#1 SYN conn=0x87ab6ec61511af3d seq=0 payload=&quot;&quot; (14B)</text>
<text x="30" y="5431" font-size="12" fill="#64748b">5091.2ms</text>
<line x1="900" y1="5426" x2="280" y2="5426" stroke="#d97706" stroke-width="2.2" marker-end="url(#arrowAmber)"/>
<text x="590" y="5418" text-anchor="middle" font-size="12" fill="#0f172a">#2 ACK|SYN conn=0x87ab6ec61511af3d seq=0 payload=&quot;ack_of=&lt;missing&gt;&quot; (14B)</text>
<text x="30" y="5493" font-size="12" fill="#64748b">5096.9ms</text>
<line x1="280" y1="5488" x2="900" y2="5488" stroke="#059669" stroke-width="2.2" marker-end="url(#arrowGreen)"/>
<text x="590" y="5480" text-anchor="middle" font-size="12" fill="#0f172a">#3 ACK conn=0x87ab6ec61511af3d seq=0 payload=&quot;ack_of=SYN&quot; (15B)</text>
<text x="30" y="5555" font-size="12" fill="#64748b">5097.0ms</text>
<line x1="280" y1="5550" x2="900" y2="5550" stroke="#1d4ed8" stroke-width="2.2" marker-end="url(#arrowBlue)"/>
<text x="590" y="5542" text-anchor="middle" font-size="12" fill="#0f172a">#4 DATA conn=0x87ab6ec61511af3d seq=1 payload=&quot;trace-7&quot; (21B)</text>
<text x="30" y="5617" font-size="12" fill="#64748b">5097.2ms</text>
<line x1="900" y1="5612" x2="280" y2="5612" stroke="#059669" stroke-width="2.2" marker-end="url(#arrowGreen)"/>
<text x="590" y="5604" text-anchor="middle" font-size="12" fill="#0f172a">#5 ACK conn=0x87ab6ec61511af3d seq=1 payload=&quot;ack_of=DATA&quot; (15B)</text>
<text x="30" y="5679" font-size="12" fill="#64748b">5097.3ms</text>
<line x1="900" y1="5674" x2="280" y2="5674" stroke="#1d4ed8" stroke-width="2.2" marker-end="url(#arrowBlue)"/>
<text x="590" y="5666" text-anchor="middle" font-size="12" fill="#0f172a">#6 DATA conn=0x87ab6ec61511af3d seq=1 payload=&quot;Received trace-7&quot; (30B)</text>
<text x="30" y="5741" font-size="12" fill="#64748b">5097.5ms</text>
<line x1="280" y1="5736" x2="590" y2="5736" stroke="#dc2626" stroke-width="2.2" marker-end="url(#arrowRed)"/>
<line x1="584" y1="5730" x2="596" y2="5742" stroke="#b91c1c" stroke-width="2"/>
<line x1="584" y1="5742" x2="596" y2="5730" stroke="#b91c1c" stroke-width="2"/>
<text x="435" y="5756" text-anchor="middle" font-size="12" fill="#991b1b">#7 DROP ACK conn=0x87ab6ec61511af3d seq=1 payload=&quot;ack_of=DATA&quot; (15B)</text>
<text x="30" y="5803" font-size="12" fill="#64748b">5097.6ms</text>
<line x1="280" y1="5798" x2="900" y2="5798" stroke="#0f766e" stroke-width="2.2" marker-end="url(#arrowTeal)"/>
<text x="590" y="5790" text-anchor="middle" font-size="12" fill="#0f172a">#8 FIN conn=0x87ab6ec61511af3d seq=2 payload=&quot;&quot; (14B)</text>
<text x="30" y="5865" font-size="12" fill="#64748b">5097.9ms</text>
<line x1="900" y1="5860" x2="280" y2="5860" stroke="#0f766e" stroke-width="2.2" marker-end="url(#arrowTeal)"/>
<text x="590" y="5852" text-anchor="middle" font-size="12" fill="#0f172a">#9 ACK|FIN conn=0x87ab6ec61511af3d seq=2 payload=&quot;ack_of=&lt;missing&gt;&quot; (14B)</text>
<text x="30" y="5927" font-size="12" fill="#64748b">5098.4ms</text>
<line x1="280" y1="5922" x2="900" y2="5922" stroke="#059669" stroke-width="2.2" marker-end="url(#arrowGreen)"/>
<text x="590" y="5914" text-anchor="middle" font-size="12" fill="#0f172a">#10 ACK conn=0x87ab6ec61511af3d seq=2 payload=&quot;ack_of=FIN&quot; (15B)</text>
</svg>